<?xml version="1.0" encoding="UTF-8"?>
<svg width="72px" height="72px" viewBox="0 0 72 72" version="1.1" xmlns="http://www.w3.org/2000/svg" xmlns:xlink="http://www.w3.org/1999/xlink">
    <!-- Generator: Sketch 60 (88103) - https://sketch.com -->
    <title>减员</title>
    <desc>Created with Sketch.</desc>
    <defs>
        <rect id="path-1" x="0" y="0" width="220" height="220"></rect>
        <filter x="-13.2%" y="-11.4%" width="126.4%" height="126.4%" filterUnits="objectBoundingBox" id="filter-2">
            <feOffset dx="0" dy="4" in="SourceAlpha" result="shadowOffsetOuter1"></feOffset>
            <feGaussianBlur stdDeviation="9" in="shadowOffsetOuter1" result="shadowBlurOuter1"></feGaussianBlur>
            <feColorMatrix values="0 0 0 0 0   0 0 0 0 0   0 0 0 0 0  0 0 0 0.06 0" type="matrix" in="shadowBlurOuter1"></feColorMatrix>
        </filter>
        <rect id="path-3" x="0" y="0" width="220" height="220"></rect>
        <filter x="-13.2%" y="-11.4%" width="126.4%" height="126.4%" filterUnits="objectBoundingBox" id="filter-4">
            <feOffset dx="0" dy="4" in="SourceAlpha" result="shadowOffsetOuter1"></feOffset>
            <feGaussianBlur stdDeviation="9" in="shadowOffsetOuter1" result="shadowBlurOuter1"></feGaussianBlur>
            <feColorMatrix values="0 0 0 0 0   0 0 0 0 0   0 0 0 0 0  0 0 0 0.06 0" type="matrix" in="shadowBlurOuter1"></feColorMatrix>
        </filter>
    </defs>
    <g id="页面-1" stroke="none" stroke-width="1" fill="none" fill-rule="evenodd">
        <g id="0医保服务大厅" transform="translate(-1170.000000, -721.000000)">
            <rect fill="#FFFFFF" x="0" y="0" width="1440" height="1858"></rect>
            <g id="分组-6-copy" transform="translate(1096.000000, 675.000000)">
                <g>
                    <g id="矩形">
                        <use fill="black" fill-opacity="1" filter="url(#filter-2)" xlink:href="#path-1"></use>
                        <use fill="#FFFFFF" fill-rule="evenodd" xlink:href="#path-1"></use>
                    </g>
                    <text id="医疗机构调价项目申报" font-family="PingFangSC-Regular, PingFang SC" font-size="16" font-weight="normal" fill="#333333">
                        <tspan x="62" y="157">参保人员减员</tspan>
                        <tspan x="94" y="179">申报</tspan>
                    </text>
                    <g id="减员" transform="translate(74.000000, 46.000000)">
                        <g id="编组">
                            <g id="人-(1)-(1)" transform="translate(3.000000, 5.000000)" stroke="#666666" stroke-width="2.06999998">
                                <path d="M18.9981091,7.03499999 C12.3893652,7.03499999 7.03499999,12.390697 7.03499999,18.9985121 C7.03499999,22.9582127 8.965065,26.5855162 12.1436733,28.8086893 L13.8192838,29.9806401 L11.8827229,30.6370479 C9.91000947,31.3057099 8.22436669,32.4719224 6.99301749,34.2552125 C5.57573481,36.3069476 2.98227651,44.7071238 1.37909524,51.6119053 C1.2352296,52.1617709 1.15768997,52.5558561 1.12937181,52.7542681 L1.10801072,52.8623984 C0.799929225,54.0775073 1.48492382,54.965 2.72111051,54.965 L36.3085058,54.965 C37.5392194,54.965 38.2067669,54.0898004 37.8683456,52.814989 L37.7402377,52.1417042 C36.2941355,45.849354 33.2513073,36.5977053 31.6394738,34.5462286 L31.5432334,34.3997083 C30.5422338,32.5515244 28.6677596,31.3286937 26.1948356,30.6368784 L24.0933867,30.0489856 L25.8782318,28.7935839 C29.044566,26.5664879 30.965,22.9474277 30.965,18.9985121 C30.965,12.3910638 25.6085213,7.03499999 18.9981091,7.03499999 Z" id="形状备份"></path>
                                <path d="M33.5776588,1.03499999 C25.2500532,1.03499999 18.5150003,7.5792502 18.5150003,15.6382102 C18.5150003,20.7056731 21.1893623,25.3232156 25.5216311,27.9842965 L27.7192496,29.334176 L25.1981353,29.8779449 C22.1364336,30.538311 19.448627,32.0502874 17.5772153,34.6852571 C15.8185006,37.1605451 12.6347411,47.1862503 10.6628761,55.4433231 C10.5582777,55.8320009 10.4767885,56.1800187 10.4157861,56.4814433 C10.3804045,56.6562709 10.360201,56.7727984 10.3525242,56.8250922 L10.3300039,56.9359422 C9.92199346,58.500481 10.8623645,59.6850011 12.5378958,59.6850011 L53.7384348,59.6850011 C55.4083822,59.6850011 56.3274627,58.5134964 55.8832973,56.8894734 L55.7247955,56.0802568 C53.9438466,48.5461646 50.2072253,37.5006407 48.2044163,35.0223543 L48.105244,34.8755043 C46.8266812,32.5804188 44.4225932,31.0783027 41.2675686,30.2446395 L38.7732524,29.5855577 L41.0314993,28.3380311 C45.7046565,25.756432 48.6450009,20.9485524 48.6450009,15.6382102 C48.6450009,7.57967848 41.90731,1.03499999 33.5776588,1.03499999 Z" id="形状" fill="#FFFFFF"></path>
                            </g>
                            <circle id="椭圆形" stroke="#666666" stroke-width="2.24999994" fill="#FFFFFF" cx="54.5" cy="52.5" r="13.5"></circle>
                            <circle id="椭圆形" fill="#EBEBEB" cx="54.5" cy="52.5" r="10.5"></circle>
                            <polygon id="矩形-copy-13备份" fill="#666666" points="47 51 62.1999995 51 62.1999995 53.5 47 53.5"></polygon>
                        </g>
                    </g>
                </g>
            </g>
            <g id="分组-6-copy备份-9" transform="translate(1096.000000, 675.000000)">
                <g id="分组-6-copy">
                    <g id="矩形">
                        <use fill="black" fill-opacity="1" filter="url(#filter-4)" xlink:href="#path-3"></use>
                        <use fill="#FFFFFF" fill-rule="evenodd" xlink:href="#path-3"></use>
                    </g>
                    <g id="减员" transform="translate(74.000000, 46.000000)">
                        <g id="编组">
                            <g id="人-(1)-(1)" transform="translate(3.000000, 5.000000)" stroke="#666666" stroke-width="2.06999998">
                                <path d="M18.9981091,7.03499999 C12.3893652,7.03499999 7.03499999,12.390697 7.03499999,18.9985121 C7.03499999,22.9582127 8.965065,26.5855162 12.1436733,28.8086893 L13.8192838,29.9806401 L11.8827229,30.6370479 C9.91000947,31.3057099 8.22436669,32.4719224 6.99301749,34.2552125 C5.57573481,36.3069476 2.98227651,44.7071238 1.37909524,51.6119053 C1.2352296,52.1617709 1.15768997,52.5558561 1.12937181,52.7542681 L1.10801072,52.8623984 C0.799929225,54.0775073 1.48492382,54.965 2.72111051,54.965 L36.3085058,54.965 C37.5392194,54.965 38.2067669,54.0898004 37.8683456,52.814989 L37.7402377,52.1417042 C36.2941355,45.849354 33.2513073,36.5977053 31.6394738,34.5462286 L31.5432334,34.3997083 C30.5422338,32.5515244 28.6677596,31.3286937 26.1948356,30.6368784 L24.0933867,30.0489856 L25.8782318,28.7935839 C29.044566,26.5664879 30.965,22.9474277 30.965,18.9985121 C30.965,12.3910638 25.6085213,7.03499999 18.9981091,7.03499999 Z" id="形状备份"></path>
                                <path d="M33.5776588,1.03499999 C25.2500532,1.03499999 18.5150003,7.5792502 18.5150003,15.6382102 C18.5150003,20.7056731 21.1893623,25.3232156 25.5216311,27.9842965 L27.7192496,29.334176 L25.1981353,29.8779449 C22.1364336,30.538311 19.448627,32.0502874 17.5772153,34.6852571 C15.8185006,37.1605451 12.6347411,47.1862503 10.6628761,55.4433231 C10.5582777,55.8320009 10.4767885,56.1800187 10.4157861,56.4814433 C10.3804045,56.6562709 10.360201,56.7727984 10.3525242,56.8250922 L10.3300039,56.9359422 C9.92199346,58.500481 10.8623645,59.6850011 12.5378958,59.6850011 L53.7384348,59.6850011 C55.4083822,59.6850011 56.3274627,58.5134964 55.8832973,56.8894734 L55.7247955,56.0802568 C53.9438466,48.5461646 50.2072253,37.5006407 48.2044163,35.0223543 L48.105244,34.8755043 C46.8266812,32.5804188 44.4225932,31.0783027 41.2675686,30.2446395 L38.7732524,29.5855577 L41.0314993,28.3380311 C45.7046565,25.756432 48.6450009,20.9485524 48.6450009,15.6382102 C48.6450009,7.57967848 41.90731,1.03499999 33.5776588,1.03499999 Z" id="形状" fill="#FFFFFF"></path>
                            </g>
                            <circle id="椭圆形" stroke="#666666" stroke-width="2.24999994" fill="#FFFFFF" cx="54.5" cy="52.5" r="13.5"></circle>
                            <circle id="椭圆形" fill="#EBEBEB" cx="54.5" cy="52.5" r="10.5"></circle>
                            <polygon id="矩形-copy-13备份" fill="#666666" points="47 51 62.1999995 51 62.1999995 53.5 47 53.5"></polygon>
                        </g>
                    </g>
                    <g id="icon1-copy" transform="translate(74.000000, 46.000000)">
                        <g id="编组">
                            <g id="人-(1)-(1)" transform="translate(3.000000, 5.000000)" stroke="#666666" stroke-width="2.06999998">
                                <path d="M18.9981091,7.03499999 C12.3893652,7.03499999 7.03499999,12.390697 7.03499999,18.9985121 C7.03499999,22.9582127 8.965065,26.5855162 12.1436733,28.8086893 L13.8192838,29.9806401 L11.8827229,30.6370479 C9.91000947,31.3057099 8.22436669,32.4719224 6.99301749,34.2552125 C5.57573481,36.3069476 2.98227651,44.7071238 1.37909524,51.6119053 C1.2352296,52.1617709 1.15768997,52.5558561 1.12937181,52.7542681 L1.10801072,52.8623984 C0.799929225,54.0775073 1.48492382,54.965 2.72111051,54.965 L36.3085058,54.965 C37.5392194,54.965 38.2067669,54.0898004 37.8683456,52.814989 L37.7402377,52.1417042 C36.2941355,45.849354 33.2513073,36.5977053 31.6394738,34.5462286 L31.5432334,34.3997083 C30.5422338,32.5515244 28.6677596,31.3286937 26.1948356,30.6368784 L24.0933867,30.0489856 L25.8782318,28.7935839 C29.044566,26.5664879 30.965,22.9474277 30.965,18.9985121 C30.965,12.3910638 25.6085213,7.03499999 18.9981091,7.03499999 Z" id="形状备份"></path>
                                <path d="M33.5776588,1.03499999 C25.2500532,1.03499999 18.5150003,7.5792502 18.5150003,15.6382102 C18.5150003,20.7056731 21.1893623,25.3232156 25.5216311,27.9842965 L27.7192496,29.334176 L25.1981353,29.8779449 C22.1364336,30.538311 19.448627,32.0502874 17.5772153,34.6852571 C15.8185006,37.1605451 12.6347411,47.1862503 10.6628761,55.4433231 C10.5582777,55.8320009 10.4767885,56.1800187 10.4157861,56.4814433 C10.3804045,56.6562709 10.360201,56.7727984 10.3525242,56.8250922 L10.3300039,56.9359422 C9.92199346,58.500481 10.8623645,59.6850011 12.5378958,59.6850011 L53.7384348,59.6850011 C55.4083822,59.6850011 56.3274627,58.5134964 55.8832973,56.8894734 L55.7247955,56.0802568 C53.9438466,48.5461646 50.2072253,37.5006407 48.2044163,35.0223543 L48.105244,34.8755043 C46.8266812,32.5804188 44.4225932,31.0783027 41.2675686,30.2446395 L38.7732524,29.5855577 L41.0314993,28.3380311 C45.7046565,25.756432 48.6450009,20.9485524 48.6450009,15.6382102 C48.6450009,7.57967848 41.90731,1.03499999 33.5776588,1.03499999 Z" id="形状" fill="#FFFFFF"></path>
                            </g>
                            <circle id="椭圆形" stroke="#666666" stroke-width="2.24999994" fill="#FFFFFF" cx="54.5" cy="52.5" r="13.5"></circle>
                            <circle id="椭圆形" fill="#EBEBEB" cx="54.5" cy="52.5" r="10.5"></circle>
                            <polygon id="矩形-copy-13备份" fill="#666666" points="47 51 62.1999995 51 62.1999995 53.5 47 53.5"></polygon>
                        </g>
                    </g>
                </g>
            </g>
        </g>
    </g>
</svg>