<?xml version="1.0" encoding="UTF-8"?>
<svg width="72px" height="72px" viewBox="0 0 72 72" version="1.1" xmlns="http://www.w3.org/2000/svg" xmlns:xlink="http://www.w3.org/1999/xlink">
    <!-- Generator: Sketch 60 (88103) - https://sketch.com -->
    <title>补缴申请</title>
    <desc>Created with Sketch.</desc>
    <g id="页面-1" stroke="none" stroke-width="1" fill="none" fill-rule="evenodd">
        <g id="0医保服务大厅" transform="translate(-1170.000000, -477.000000)">
            <g id="分组-6-copy备份-4" transform="translate(1096.000000, 431.000000)">
                <g id="分组-6-copy">
                    <g id="icon1-copy" transform="translate(74.000000, 46.000000)">
                        <g id="钱-(5)" transform="translate(0.000000, -0.000000)">
                            <rect id="矩形备份" stroke="#666666" stroke-width="2.24999994" fill-rule="nonzero" x="9.87500003" y="12.875" width="61.2499999" height="38.2499999" rx="1.79999995"></rect>
                            <path d="M15.3125146,15.8313498 L65.7125147,15.8313498 C66.7066272,15.8313498 67.5125147,16.6372372 67.5125147,17.6313497 L67.5125147,46.0313498 C67.5125147,47.0254623 66.7066272,47.8313498 65.7125147,47.8313498 L15.3125146,47.8313498 C14.3184021,47.8313498 13.5125147,47.0254623 13.5125147,46.0313498 L13.5125147,17.6313497 C13.5125147,16.6372372 14.3184021,15.8313498 15.3125146,15.8313498 Z" id="矩形备份" fill="#EBEBEB"></path>
                            <rect id="矩形" stroke="#666666" stroke-width="2.24999994" fill="#FFFFFF" fill-rule="nonzero" x="0.87500003" y="20.875" width="61.2499999" height="38.2499999" rx="1.79999995"></rect>
                            <rect id="矩形" fill="#666666" x="51" y="31" width="2.5" height="19"></rect>
                            <rect id="矩形备份-2" fill="#666666" x="10" y="31" width="2.5" height="19"></rect>
                            <polygon id="路径" fill="#666666" points="24 30.8082305 26.1068151 29.012581 31.9150105 35.6919398 37.9255619 29 40 30.8253864 34.6462384 36.7922041 39.7818856 36.7922041 39.7784166 39.5371461 33.2794681 39.5371461 33.2794681 42.2923816 39.7807293 42.2923816 39.7772603 45.0373236 33.2794681 45.0373236 33.2794681 50.9965688 30.4973622 51 30.4973622 45.0373236 24.0065079 45.0373236 24.0065079 42.2923816 30.4973622 42.2923816 30.4973622 39.5360024 24.0065079 39.5360024 24.0065079 36.7910603 29.2022838 36.7910603"></polygon>
                        </g>
                    </g>
                </g>
            </g>
        </g>
    </g>
</svg>