<?xml version="1.0" encoding="UTF-8"?>
<svg width="73px" height="73px" viewBox="0 0 73 73" version="1.1" xmlns="http://www.w3.org/2000/svg" xmlns:xlink="http://www.w3.org/1999/xlink">
    <!-- Generator: Sketch 60 (88103) - https://sketch.com -->
    <title>回退</title>
    <desc>Created with Sketch.</desc>
    <defs>
        <rect id="path-1" x="0" y="0" width="220" height="220"></rect>
        <filter x="-13.2%" y="-11.4%" width="126.4%" height="126.4%" filterUnits="objectBoundingBox" id="filter-2">
            <feOffset dx="0" dy="4" in="SourceAlpha" result="shadowOffsetOuter1"></feOffset>
            <feGaussianBlur stdDeviation="9" in="shadowOffsetOuter1" result="shadowBlurOuter1"></feGaussianBlur>
            <feColorMatrix values="0 0 0 0 0   0 0 0 0 0   0 0 0 0 0  0 0 0 0.06 0" type="matrix" in="shadowBlurOuter1"></feColorMatrix>
        </filter>
        <rect id="path-3" x="0" y="0" width="220" height="220"></rect>
        <filter x="-13.2%" y="-11.4%" width="126.4%" height="126.4%" filterUnits="objectBoundingBox" id="filter-4">
            <feOffset dx="0" dy="4" in="SourceAlpha" result="shadowOffsetOuter1"></feOffset>
            <feGaussianBlur stdDeviation="9" in="shadowOffsetOuter1" result="shadowBlurOuter1"></feGaussianBlur>
            <feColorMatrix values="0 0 0 0 0   0 0 0 0 0   0 0 0 0 0  0 0 0 0.06 0" type="matrix" in="shadowBlurOuter1"></feColorMatrix>
        </filter>
    </defs>
    <g id="页面-1" stroke="none" stroke-width="1" fill="none" fill-rule="evenodd">
        <g id="0医保服务大厅" transform="translate(-682.000000, -1326.000000)">
            <rect fill="#FFFFFF" x="0" y="0" width="1440" height="1858"></rect>
            <g id="分组-6-copy" transform="translate(608.000000, 1280.000000)">
                <g>
                    <g id="矩形">
                        <use fill="black" fill-opacity="1" filter="url(#filter-2)" xlink:href="#path-1"></use>
                        <use fill="#FFFFFF" fill-rule="evenodd" xlink:href="#path-1"></use>
                    </g>
                    <text id="医疗机构调价项目申报" font-family="PingFangSC-Regular, PingFang SC" font-size="16" font-weight="normal" fill="#333333">
                        <tspan x="78" y="157">回退记录</tspan>
                    </text>
                    <g id="回退" transform="translate(74.000000, 46.000000)">
                        <g id="编组-2" transform="translate(-8.653212, -8.653212)">
                            <path d="M44,76 C61.673112,76 76,61.673112 76,44 C76,35.5318926 72.7107376,27.8320336 67.3401617,22.1083719 C61.5022368,15.8866356 53.2050046,12 44,12 C26.326888,12 12,26.326888 12,44 C12,51.5062022 14.5844393,58.4087763 18.9120189,63.8664235 C21.8384492,67.557037 25.5619902,70.5869082 29.8224883,72.6958835" id="椭圆形" stroke="#666666" stroke-width="2.24999994" fill-rule="nonzero" transform="translate(44.000000, 44.000000) rotate(-60.000000) translate(-44.000000, -44.000000) "></path>
                            <path d="M57.3888057,53.1532125 L31.8999922,53.1532125 C31.7589752,53.1532125 31.6532125,53.0085844 31.6532125,52.822634 L31.6532125,50.983791 C31.6532125,50.7978406 31.7589752,50.6532125 31.8999922,50.6532125 L57.4064328,50.6532125 C57.5474497,50.6532125 57.6532125,50.7978406 57.6532125,50.983791 L57.6532125,52.822634 C57.6532125,53.0085844 57.5298227,53.1532125 57.3888057,53.1532125 L57.3888057,53.1532125 Z M57.3888057,63.1532125 L31.8999922,63.1532125 C31.7589752,63.1532125 31.6532125,63.0085844 31.6532125,62.822634 L31.6532125,60.983791 C31.6532125,60.7978406 31.7589752,60.6532125 31.8999922,60.6532125 L57.4064328,60.6532125 C57.5474497,60.6532125 57.6532125,60.7978406 57.6532125,60.983791 L57.6532125,62.822634 C57.6532125,63.0085844 57.5298227,63.1532125 57.3888057,63.1532125 Z" id="形状" fill="#666666" fill-rule="nonzero"></path>
                            <circle id="椭圆形" fill="#666666" cx="68.6532125" cy="64.6532125" r="2"></circle>
                            <path d="M35.7619471,15.9565951 C24.1218952,19.9733171 15.7619471,31.0122824 15.7619471,44.0009942 C15.7619471,56.8951919 24.0006734,67.8679151 35.5083691,71.9565951 C28.3444439,65.6556001 24.7624813,56.3222668 24.7624813,43.9565951 C24.7624813,31.5909234 28.4289699,22.2575901 35.7619471,15.9565951 Z" id="椭圆形" fill="#EBEBEB"></path>
                            <path d="M36.921975,28.9031965 L40.0840125,25.7782168 L38.3133,24.0281977 L32.1857778,30.1202419 L38.3133,36.2782141 L40.0840125,34.5281977 L36.921975,31.4032154 L50.3290781,31.4032154 C52.4792969,31.4032154 54.1235469,33.4031953 54.1235469,35.7782338 C54.1235469,38.1532722 52.4792969,40.1531936 50.3290781,40.1531936 L44.0050031,40.1531936 L44.0050031,42.6532125 L50.3290781,42.6532125 C53.8706218,42.6532125 56.6532125,39.5282328 56.6532125,35.7782338 C56.6532125,32.0282347 53.8706218,28.9031965 50.3290781,28.9031965 L36.921975,28.9031965 Z" id="路径" fill="#666666"></path>
                        </g>
                    </g>
                </g>
            </g>
            <g id="分组-6-copy备份-16" transform="translate(608.000000, 1280.000000)">
                <g id="分组-6-copy">
                    <g id="矩形">
                        <use fill="black" fill-opacity="1" filter="url(#filter-4)" xlink:href="#path-3"></use>
                        <use fill="#FFFFFF" fill-rule="evenodd" xlink:href="#path-3"></use>
                    </g>
                    <g id="回退" transform="translate(74.000000, 46.000000)">
                        <g id="编组-2" transform="translate(-8.653212, -8.653212)">
                            <path d="M44,76 C61.673112,76 76,61.673112 76,44 C76,35.5318926 72.7107376,27.8320336 67.3401617,22.1083719 C61.5022368,15.8866356 53.2050046,12 44,12 C26.326888,12 12,26.326888 12,44 C12,51.5062022 14.5844393,58.4087763 18.9120189,63.8664235 C21.8384492,67.557037 25.5619902,70.5869082 29.8224883,72.6958835" id="椭圆形" stroke="#666666" stroke-width="2.24999994" fill-rule="nonzero" transform="translate(44.000000, 44.000000) rotate(-60.000000) translate(-44.000000, -44.000000) "></path>
                            <path d="M57.3888057,53.1532125 L31.8999922,53.1532125 C31.7589752,53.1532125 31.6532125,53.0085844 31.6532125,52.822634 L31.6532125,50.983791 C31.6532125,50.7978406 31.7589752,50.6532125 31.8999922,50.6532125 L57.4064328,50.6532125 C57.5474497,50.6532125 57.6532125,50.7978406 57.6532125,50.983791 L57.6532125,52.822634 C57.6532125,53.0085844 57.5298227,53.1532125 57.3888057,53.1532125 L57.3888057,53.1532125 Z M57.3888057,63.1532125 L31.8999922,63.1532125 C31.7589752,63.1532125 31.6532125,63.0085844 31.6532125,62.822634 L31.6532125,60.983791 C31.6532125,60.7978406 31.7589752,60.6532125 31.8999922,60.6532125 L57.4064328,60.6532125 C57.5474497,60.6532125 57.6532125,60.7978406 57.6532125,60.983791 L57.6532125,62.822634 C57.6532125,63.0085844 57.5298227,63.1532125 57.3888057,63.1532125 Z" id="形状" fill="#666666" fill-rule="nonzero"></path>
                            <circle id="椭圆形" fill="#666666" cx="68.6532125" cy="64.6532125" r="2"></circle>
                            <path d="M35.7619471,15.9565951 C24.1218952,19.9733171 15.7619471,31.0122824 15.7619471,44.0009942 C15.7619471,56.8951919 24.0006734,67.8679151 35.5083691,71.9565951 C28.3444439,65.6556001 24.7624813,56.3222668 24.7624813,43.9565951 C24.7624813,31.5909234 28.4289699,22.2575901 35.7619471,15.9565951 Z" id="椭圆形" fill="#EBEBEB"></path>
                            <path d="M36.921975,28.9031965 L40.0840125,25.7782168 L38.3133,24.0281977 L32.1857778,30.1202419 L38.3133,36.2782141 L40.0840125,34.5281977 L36.921975,31.4032154 L50.3290781,31.4032154 C52.4792969,31.4032154 54.1235469,33.4031953 54.1235469,35.7782338 C54.1235469,38.1532722 52.4792969,40.1531936 50.3290781,40.1531936 L44.0050031,40.1531936 L44.0050031,42.6532125 L50.3290781,42.6532125 C53.8706218,42.6532125 56.6532125,39.5282328 56.6532125,35.7782338 C56.6532125,32.0282347 53.8706218,28.9031965 50.3290781,28.9031965 L36.921975,28.9031965 Z" id="路径" fill="#666666"></path>
                        </g>
                    </g>
                    <g id="icon1-copy" transform="translate(65.000000, 37.000000)">
                        <g id="编组-2" transform="translate(0.346788, 0.346788)">
                            <path d="M44,76 C61.673112,76 76,61.673112 76,44 C76,35.5318926 72.7107376,27.8320336 67.3401617,22.1083719 C61.5022368,15.8866356 53.2050046,12 44,12 C26.326888,12 12,26.326888 12,44 C12,51.5062022 14.5844393,58.4087763 18.9120189,63.8664235 C21.8384492,67.557037 25.5619902,70.5869082 29.8224883,72.6958835" id="椭圆形" stroke="#666666" stroke-width="2.24999994" fill-rule="nonzero" transform="translate(44.000000, 44.000000) rotate(-60.000000) translate(-44.000000, -44.000000) "></path>
                            <path d="M57.3888057,53.1532125 L31.8999922,53.1532125 C31.7589752,53.1532125 31.6532125,53.0085844 31.6532125,52.822634 L31.6532125,50.983791 C31.6532125,50.7978406 31.7589752,50.6532125 31.8999922,50.6532125 L57.4064328,50.6532125 C57.5474497,50.6532125 57.6532125,50.7978406 57.6532125,50.983791 L57.6532125,52.822634 C57.6532125,53.0085844 57.5298227,53.1532125 57.3888057,53.1532125 L57.3888057,53.1532125 Z M57.3888057,63.1532125 L31.8999922,63.1532125 C31.7589752,63.1532125 31.6532125,63.0085844 31.6532125,62.822634 L31.6532125,60.983791 C31.6532125,60.7978406 31.7589752,60.6532125 31.8999922,60.6532125 L57.4064328,60.6532125 C57.5474497,60.6532125 57.6532125,60.7978406 57.6532125,60.983791 L57.6532125,62.822634 C57.6532125,63.0085844 57.5298227,63.1532125 57.3888057,63.1532125 Z" id="形状" fill="#666666" fill-rule="nonzero"></path>
                            <circle id="椭圆形" fill="#666666" cx="68.6532125" cy="64.6532125" r="2"></circle>
                            <path d="M35.7619471,15.9565951 C24.1218952,19.9733171 15.7619471,31.0122824 15.7619471,44.0009942 C15.7619471,56.8951919 24.0006734,67.8679151 35.5083691,71.9565951 C28.3444439,65.6556001 24.7624813,56.3222668 24.7624813,43.9565951 C24.7624813,31.5909234 28.4289699,22.2575901 35.7619471,15.9565951 Z" id="椭圆形" fill="#EBEBEB"></path>
                            <path d="M36.921975,28.9031965 L40.0840125,25.7782168 L38.3133,24.0281977 L32.1857778,30.1202419 L38.3133,36.2782141 L40.0840125,34.5281977 L36.921975,31.4032154 L50.3290781,31.4032154 C52.4792969,31.4032154 54.1235469,33.4031953 54.1235469,35.7782338 C54.1235469,38.1532722 52.4792969,40.1531936 50.3290781,40.1531936 L44.0050031,40.1531936 L44.0050031,42.6532125 L50.3290781,42.6532125 C53.8706218,42.6532125 56.6532125,39.5282328 56.6532125,35.7782338 C56.6532125,32.0282347 53.8706218,28.9031965 50.3290781,28.9031965 L36.921975,28.9031965 Z" id="路径" fill="#666666"></path>
                        </g>
                    </g>
                </g>
            </g>
        </g>
    </g>
</svg>