<?xml version="1.0" encoding="UTF-8"?>
<svg width="72px" height="72px" viewBox="0 0 72 72" version="1.1" xmlns="http://www.w3.org/2000/svg" xmlns:xlink="http://www.w3.org/1999/xlink">
    <!-- Generator: Sketch 60 (88103) - https://sketch.com -->
    <title>增员</title>
    <desc>Created with Sketch.</desc>
    <g id="页面-1" stroke="none" stroke-width="1" fill="none" fill-rule="evenodd">
        <g id="0医保服务大厅" transform="translate(-926.000000, -721.000000)">
            <g id="分组-6-copy备份-7" transform="translate(852.000000, 675.000000)">
                <g id="分组-6-copy">
                    <g id="icon1-copy" transform="translate(74.000000, 46.000000)">
                        <g id="人-(1)-(1)">
                            <path d="M21.9981091,12.035 C15.3893652,12.035 10.035,17.390697 10.035,23.9985121 C10.035,27.9582127 11.965065,31.5855162 15.1436733,33.8086893 L16.8192838,34.9806401 L14.8827229,35.6370479 C12.9100095,36.3057099 11.2243667,37.4719224 9.99301749,39.2552125 C8.57573481,41.3069476 5.98227651,49.7071238 4.37909524,56.6119053 C4.2352296,57.1617709 4.15768997,57.5558561 4.12937181,57.7542681 L4.10801072,57.8623984 C3.79992922,59.0775073 4.48492382,59.965 5.72111051,59.965 L39.3085058,59.965 C40.5392194,59.965 41.2067669,59.0898004 40.8683456,57.814989 L40.7402377,57.1417042 C39.2941355,50.849354 36.2513073,41.5977053 34.6394738,39.5462286 L34.5432334,39.3997083 C33.5422338,37.5515244 31.6677596,36.3286937 29.1948356,35.6368784 L27.0933867,35.0489856 L28.8782318,33.7935839 C32.044566,31.5664879 33.965,27.9474277 33.965,23.9985121 C33.965,17.3910638 28.6085213,12.035 21.9981091,12.035 Z" id="形状备份" stroke="#666666" stroke-width="2.06999998"></path>
                            <path d="M36.5776588,6.03499999 C28.2500532,6.03499999 21.5150003,12.5792502 21.5150003,20.6382102 C21.5150003,25.7056731 24.1893623,30.3232156 28.5216311,32.9842965 L30.7192496,34.334176 L28.1981353,34.8779449 C25.1364336,35.538311 22.448627,37.0502874 20.5772153,39.6852571 C18.8185006,42.1605451 15.6347411,52.1862503 13.6628761,60.4433231 C13.5582777,60.8320009 13.4767885,61.1800187 13.4157861,61.4814433 C13.3804045,61.6562709 13.360201,61.7727984 13.3525242,61.8250922 L13.3300039,61.9359422 C12.9219935,63.500481 13.8623645,64.6850011 15.5378958,64.6850011 L56.7384348,64.6850011 C58.4083822,64.6850011 59.3274627,63.5134964 58.8832973,61.8894734 L58.7247955,61.0802568 C56.9438466,53.5461646 53.2072253,42.5006407 51.2044163,40.0223543 L51.105244,39.8755043 C49.8266812,37.5804188 47.4225932,36.0783027 44.2675686,35.2446395 L41.7732524,34.5855577 L44.0314993,33.3380311 C48.7046565,30.756432 51.6450009,25.9485524 51.6450009,20.6382102 C51.6450009,12.5796785 44.90731,6.03499999 36.5776588,6.03499999 Z" id="形状" stroke="#666666" stroke-width="2.06999998" fill="#FFFFFF"></path>
                            <g id="编组" transform="translate(41.000000, 39.000000)">
                                <circle id="椭圆形" stroke="#666666" stroke-width="2.24999994" fill="#FFFFFF" cx="13.5" cy="13.5" r="13.5"></circle>
                                <circle id="椭圆形" fill="#EBEBEB" cx="13.5" cy="13.5" r="10.5"></circle>
                                <polygon id="矩形-copy-13备份" fill="#666666" points="6 12 21.1999995 12 21.1999995 14.5 6 14.5"></polygon>
                                <polygon id="矩形-copy-13备份" fill="#666666" transform="translate(13.600000, 13.250000) rotate(-270.000000) translate(-13.600000, -13.250000) " points="6 12 21.1999995 12 21.1999995 14.5 6 14.5"></polygon>
                            </g>
                        </g>
                    </g>
                </g>
            </g>
        </g>
    </g>
</svg>