<?xml version="1.0" encoding="UTF-8"?>
<svg width="72px" height="72px" viewBox="0 0 72 72" version="1.1" xmlns="http://www.w3.org/2000/svg" xmlns:xlink="http://www.w3.org/1999/xlink">
    <!-- Generator: Sketch 60 (88103) - https://sketch.com -->
    <title>个人</title>
    <desc>Created with Sketch.</desc>
    <defs>
        <rect id="path-1" x="0" y="0" width="220" height="220"></rect>
        <filter x="-13.2%" y="-11.4%" width="126.4%" height="126.4%" filterUnits="objectBoundingBox" id="filter-2">
            <feOffset dx="0" dy="4" in="SourceAlpha" result="shadowOffsetOuter1"></feOffset>
            <feGaussianBlur stdDeviation="9" in="shadowOffsetOuter1" result="shadowBlurOuter1"></feGaussianBlur>
            <feColorMatrix values="0 0 0 0 0   0 0 0 0 0   0 0 0 0 0  0 0 0 0.06 0" type="matrix" in="shadowBlurOuter1"></feColorMatrix>
        </filter>
        <rect id="path-3" x="0" y="0" width="220" height="220"></rect>
        <filter x="-13.2%" y="-11.4%" width="126.4%" height="126.4%" filterUnits="objectBoundingBox" id="filter-4">
            <feOffset dx="0" dy="4" in="SourceAlpha" result="shadowOffsetOuter1"></feOffset>
            <feGaussianBlur stdDeviation="9" in="shadowOffsetOuter1" result="shadowBlurOuter1"></feGaussianBlur>
            <feColorMatrix values="0 0 0 0 0   0 0 0 0 0   0 0 0 0 0  0 0 0 0.06 0" type="matrix" in="shadowBlurOuter1"></feColorMatrix>
        </filter>
    </defs>
    <g id="页面-1" stroke="none" stroke-width="1" fill="none" fill-rule="evenodd">
        <g id="0医保服务大厅" transform="translate(-926.000000, -1326.000000)">
            <rect fill="#FFFFFF" x="0" y="0" width="1440" height="1858"></rect>
            <g id="分组-6-copy" transform="translate(852.000000, 1280.000000)">
                <g>
                    <g id="矩形">
                        <use fill="black" fill-opacity="1" filter="url(#filter-2)" xlink:href="#path-1"></use>
                        <use fill="#FFFFFF" fill-rule="evenodd" xlink:href="#path-1"></use>
                    </g>
                    <text id="医疗机构调价项目申报" font-family="PingFangSC-Regular, PingFang SC" font-size="16" font-weight="normal" fill="#333333">
                        <tspan x="62" y="157">个人缴费明细</tspan>
                    </text>
                    <g id="个人" transform="translate(74.000000, 46.000000)">
                        <g id="icon1">
                            <g id="计划书" transform="translate(6.000000, 5.000000)">
                                <rect id="矩形" stroke="#666666" stroke-width="2.42999994" fill-rule="nonzero" x="-1.21499997" y="-1.21499997" width="51.4299999" height="63.4299999" rx="1.61999996"></rect>
                                <polygon id="路径" fill="#666666" points="16 9.80823052 18.1068151 8.01258098 23.9150105 14.6919398 29.9255619 8 32 9.82538645 26.6462384 15.7922041 31.7818856 15.7922041 31.7784166 18.5371461 25.2794681 18.5371461 25.2794681 21.2923816 31.7807293 21.2923816 31.7772603 24.0373236 25.2794681 24.0373236 25.2794681 29.9965688 22.4973622 30 22.4973622 24.0373236 16.0065079 24.0373236 16.0065079 21.2923816 22.4973622 21.2923816 22.4973622 18.5360024 16.0065079 18.5360024 16.0065079 15.7910603 21.2022838 15.7910603"></polygon>
                                <rect id="矩形" fill="#FFFFFF" x="30" y="27" width="36" height="38"></rect>
                                <polygon id="路径" fill="#666666" fill-rule="nonzero" points="11.3643818 50.2472373 27.3643818 50.2472373 27.3643818 47.5472373 11.3643818 47.5472373"></polygon>
                                <polygon id="路径" fill="#666666" fill-rule="nonzero" points="11.3643818 39.1373162 32.3643818 39.1373162 32.3643818 36.4373162 11.3643818 36.4373162 11.3643818 39.1354906"></polygon>
                            </g>
                            <path d="M55.7790726,52 C58.5417922,52 60.7797999,49.7639717 60.7797999,46.9994277 C60.7797999,44.2386988 58.5418399,42 55.7790726,42 C53.01683,42 50.7797999,44.238675 50.7797999,46.9994277 C50.7797999,49.7639717 53.01683,52 55.7790726,52 Z" id="路径" fill="#EBEBEB"></path>
                            <path d="M62.9557327,63.6231607 L62.9034393,63.3336567 C62.4997902,61.4731974 61.2768211,57.0705651 60.4820466,55.999064 C59.4090269,53.9005046 56.3475652,54.0007626 56.3475652,54.0007626 L53.9183811,54.0007626 C53.9183811,54.0007626 51.6569997,53.9148855 50.3620913,55.9013557 C49.6703023,56.9621732 48.5954662,61.051308 48.1453075,63.1055264 C48.0661981,63.4258064 48.0402904,63.6180866 48.0402904,63.6180866 C47.8581237,64.37915 48.3111504,65 49.046581,65 L61.9648099,65 C62.7002166,65 63.1470293,64.3801699 62.9557327,63.6231607 Z" id="路径" fill="#EBEBEB"></path>
                            <path d="M55.7391608,39.1699999 C51.7250209,39.1699999 48.496923,42.2344085 48.496923,45.9839346 C48.496923,48.3379908 49.7720243,50.488422 51.8487526,51.7337689 L54.4063222,53.2674608 L51.4881662,53.8820655 C50.026993,54.1898091 48.7575868,54.8873114 47.8830465,56.0903157 C47.034708,57.2568047 45.3818617,62.3417728 44.3701675,66.4794398 C44.2842001,66.7915299 44.2390656,67.0094122 44.2241615,67.108599 L44.1975702,67.2364911 C44.0965787,67.61483 44.2714254,67.8300001 44.7443016,67.8300001 L66.2746832,67.8300001 C66.7413896,67.8300001 66.9038079,67.6277417 66.7792609,67.1733721 L66.7018795,66.7848169 C65.7964385,63.0426708 63.8611106,57.453558 62.9018757,56.2939317 L62.7870377,56.1277438 C62.2183453,55.130422 61.1020082,54.449549 59.6029241,54.0644177 L56.7076534,53.3205907 L59.3386152,51.9014674 C61.5808296,50.6920319 62.9838462,48.4513756 62.9838462,45.9839346 C62.9838462,42.2346775 59.7544118,39.1699999 55.7391608,39.1699999 Z" id="形状" stroke="#666666" stroke-width="2.33999985"></path>
                        </g>
                    </g>
                </g>
            </g>
            <g id="分组-6-copy备份-15" transform="translate(852.000000, 1280.000000)">
                <g id="分组-6-copy">
                    <g id="矩形">
                        <use fill="black" fill-opacity="1" filter="url(#filter-4)" xlink:href="#path-3"></use>
                        <use fill="#FFFFFF" fill-rule="evenodd" xlink:href="#path-3"></use>
                    </g>
                    <g id="个人" transform="translate(74.000000, 46.000000)">
                        <g id="icon1">
                            <g id="计划书" transform="translate(6.000000, 5.000000)">
                                <rect id="矩形" stroke="#666666" stroke-width="2.42999994" fill-rule="nonzero" x="-1.21499997" y="-1.21499997" width="51.4299999" height="63.4299999" rx="1.61999996"></rect>
                                <polygon id="路径" fill="#666666" points="16 9.80823052 18.1068151 8.01258098 23.9150105 14.6919398 29.9255619 8 32 9.82538645 26.6462384 15.7922041 31.7818856 15.7922041 31.7784166 18.5371461 25.2794681 18.5371461 25.2794681 21.2923816 31.7807293 21.2923816 31.7772603 24.0373236 25.2794681 24.0373236 25.2794681 29.9965688 22.4973622 30 22.4973622 24.0373236 16.0065079 24.0373236 16.0065079 21.2923816 22.4973622 21.2923816 22.4973622 18.5360024 16.0065079 18.5360024 16.0065079 15.7910603 21.2022838 15.7910603"></polygon>
                                <rect id="矩形" fill="#FFFFFF" x="30" y="27" width="36" height="38"></rect>
                                <polygon id="路径" fill="#666666" fill-rule="nonzero" points="11.3643818 50.2472373 27.3643818 50.2472373 27.3643818 47.5472373 11.3643818 47.5472373"></polygon>
                                <polygon id="路径" fill="#666666" fill-rule="nonzero" points="11.3643818 39.1373162 32.3643818 39.1373162 32.3643818 36.4373162 11.3643818 36.4373162 11.3643818 39.1354906"></polygon>
                            </g>
                            <path d="M55.7790726,52 C58.5417922,52 60.7797999,49.7639717 60.7797999,46.9994277 C60.7797999,44.2386988 58.5418399,42 55.7790726,42 C53.01683,42 50.7797999,44.238675 50.7797999,46.9994277 C50.7797999,49.7639717 53.01683,52 55.7790726,52 Z" id="路径" fill="#EBEBEB"></path>
                            <path d="M62.9557327,63.6231607 L62.9034393,63.3336567 C62.4997902,61.4731974 61.2768211,57.0705651 60.4820466,55.999064 C59.4090269,53.9005046 56.3475652,54.0007626 56.3475652,54.0007626 L53.9183811,54.0007626 C53.9183811,54.0007626 51.6569997,53.9148855 50.3620913,55.9013557 C49.6703023,56.9621732 48.5954662,61.051308 48.1453075,63.1055264 C48.0661981,63.4258064 48.0402904,63.6180866 48.0402904,63.6180866 C47.8581237,64.37915 48.3111504,65 49.046581,65 L61.9648099,65 C62.7002166,65 63.1470293,64.3801699 62.9557327,63.6231607 Z" id="路径" fill="#EBEBEB"></path>
                            <path d="M55.7391608,39.1699999 C51.7250209,39.1699999 48.496923,42.2344085 48.496923,45.9839346 C48.496923,48.3379908 49.7720243,50.488422 51.8487526,51.7337689 L54.4063222,53.2674608 L51.4881662,53.8820655 C50.026993,54.1898091 48.7575868,54.8873114 47.8830465,56.0903157 C47.034708,57.2568047 45.3818617,62.3417728 44.3701675,66.4794398 C44.2842001,66.7915299 44.2390656,67.0094122 44.2241615,67.108599 L44.1975702,67.2364911 C44.0965787,67.61483 44.2714254,67.8300001 44.7443016,67.8300001 L66.2746832,67.8300001 C66.7413896,67.8300001 66.9038079,67.6277417 66.7792609,67.1733721 L66.7018795,66.7848169 C65.7964385,63.0426708 63.8611106,57.453558 62.9018757,56.2939317 L62.7870377,56.1277438 C62.2183453,55.130422 61.1020082,54.449549 59.6029241,54.0644177 L56.7076534,53.3205907 L59.3386152,51.9014674 C61.5808296,50.6920319 62.9838462,48.4513756 62.9838462,45.9839346 C62.9838462,42.2346775 59.7544118,39.1699999 55.7391608,39.1699999 Z" id="形状" stroke="#666666" stroke-width="2.33999985"></path>
                        </g>
                    </g>
                    <g id="icon1-copy" transform="translate(74.000000, 46.000000)">
                        <g id="icon1">
                            <g id="计划书" transform="translate(6.000000, 5.000000)">
                                <rect id="矩形" stroke="#666666" stroke-width="2.42999994" fill-rule="nonzero" x="-1.21499997" y="-1.21499997" width="51.4299999" height="63.4299999" rx="1.61999996"></rect>
                                <polygon id="路径" fill="#666666" points="16 9.80823052 18.1068151 8.01258098 23.9150105 14.6919398 29.9255619 8 32 9.82538645 26.6462384 15.7922041 31.7818856 15.7922041 31.7784166 18.5371461 25.2794681 18.5371461 25.2794681 21.2923816 31.7807293 21.2923816 31.7772603 24.0373236 25.2794681 24.0373236 25.2794681 29.9965688 22.4973622 30 22.4973622 24.0373236 16.0065079 24.0373236 16.0065079 21.2923816 22.4973622 21.2923816 22.4973622 18.5360024 16.0065079 18.5360024 16.0065079 15.7910603 21.2022838 15.7910603"></polygon>
                                <rect id="矩形" fill="#FFFFFF" x="30" y="27" width="36" height="38"></rect>
                                <polygon id="路径" fill="#666666" fill-rule="nonzero" points="11.3643818 50.2472373 27.3643818 50.2472373 27.3643818 47.5472373 11.3643818 47.5472373"></polygon>
                                <polygon id="路径" fill="#666666" fill-rule="nonzero" points="11.3643818 39.1373162 32.3643818 39.1373162 32.3643818 36.4373162 11.3643818 36.4373162 11.3643818 39.1354906"></polygon>
                            </g>
                            <path d="M55.7790726,52 C58.5417922,52 60.7797999,49.7639717 60.7797999,46.9994277 C60.7797999,44.2386988 58.5418399,42 55.7790726,42 C53.01683,42 50.7797999,44.238675 50.7797999,46.9994277 C50.7797999,49.7639717 53.01683,52 55.7790726,52 Z" id="路径" fill="#EBEBEB"></path>
                            <path d="M62.9557327,63.6231607 L62.9034393,63.3336567 C62.4997902,61.4731974 61.2768211,57.0705651 60.4820466,55.999064 C59.4090269,53.9005046 56.3475652,54.0007626 56.3475652,54.0007626 L53.9183811,54.0007626 C53.9183811,54.0007626 51.6569997,53.9148855 50.3620913,55.9013557 C49.6703023,56.9621732 48.5954662,61.051308 48.1453075,63.1055264 C48.0661981,63.4258064 48.0402904,63.6180866 48.0402904,63.6180866 C47.8581237,64.37915 48.3111504,65 49.046581,65 L61.9648099,65 C62.7002166,65 63.1470293,64.3801699 62.9557327,63.6231607 Z" id="路径" fill="#EBEBEB"></path>
                            <path d="M55.7391608,39.1699999 C51.7250209,39.1699999 48.496923,42.2344085 48.496923,45.9839346 C48.496923,48.3379908 49.7720243,50.488422 51.8487526,51.7337689 L54.4063222,53.2674608 L51.4881662,53.8820655 C50.026993,54.1898091 48.7575868,54.8873114 47.8830465,56.0903157 C47.034708,57.2568047 45.3818617,62.3417728 44.3701675,66.4794398 C44.2842001,66.7915299 44.2390656,67.0094122 44.2241615,67.108599 L44.1975702,67.2364911 C44.0965787,67.61483 44.2714254,67.8300001 44.7443016,67.8300001 L66.2746832,67.8300001 C66.7413896,67.8300001 66.9038079,67.6277417 66.7792609,67.1733721 L66.7018795,66.7848169 C65.7964385,63.0426708 63.8611106,57.453558 62.9018757,56.2939317 L62.7870377,56.1277438 C62.2183453,55.130422 61.1020082,54.449549 59.6029241,54.0644177 L56.7076534,53.3205907 L59.3386152,51.9014674 C61.5808296,50.6920319 62.9838462,48.4513756 62.9838462,45.9839346 C62.9838462,42.2346775 59.7544118,39.1699999 55.7391608,39.1699999 Z" id="形状" stroke="#666666" stroke-width="2.33999985"></path>
                        </g>
                    </g>
                </g>
            </g>
        </g>
    </g>
</svg>