<?xml version="1.0" encoding="UTF-8"?>
<svg width="52px" height="36px" viewBox="0 0 52 36" version="1.1" xmlns="http://www.w3.org/2000/svg" xmlns:xlink="http://www.w3.org/1999/xlink">
    <!-- Generator: Sketch 60 (88103) - https://sketch.com -->
    <title>医保logo</title>
    <desc>Created with Sketch.</desc>
    <defs>
        <rect id="path-1" x="0" y="0" width="1440" height="80"></rect>
        <filter x="-1.9%" y="-26.2%" width="103.8%" height="167.5%" filterUnits="objectBoundingBox" id="filter-2">
            <feOffset dx="0" dy="6" in="SourceAlpha" result="shadowOffsetOuter1"></feOffset>
            <feGaussianBlur stdDeviation="8" in="shadowOffsetOuter1" result="shadowBlurOuter1"></feGaussianBlur>
            <feColorMatrix values="0 0 0 0 0   0 0 0 0 0   0 0 0 0 0  0 0 0 0.08 0" type="matrix" in="shadowBlurOuter1"></feColorMatrix>
        </filter>
    </defs>
    <g id="页面-1" stroke="none" stroke-width="1" fill="none" fill-rule="evenodd">
        <g id="0医保服务大厅" transform="translate(-120.000000, -22.000000)">
            <rect fill="#FFFFFF" x="0" y="0" width="1440" height="1858"></rect>
            <g id="矩形备份">
                <use fill="black" fill-opacity="1" filter="url(#filter-2)" xlink:href="#path-1"></use>
                <use fill="#FFFFFF" fill-rule="evenodd" xlink:href="#path-1"></use>
            </g>
            <rect id="矩形备份" fill="#FFFFFF" x="120" y="0" width="1200" height="80"></rect>
            <g id="医保logo" transform="translate(120.000000, 22.000000)" fill="#2484F6">
                <g id="形状">
                    <path d="M32.7697821,3.52230878 C19.582051,1.48297155 12.8862441,8.21283539 12.8522382,8.21283539 C-0.981249053,20.244925 14.9255813,29.1840029 14.9255813,29.2179579 C26.243903,35.4718914 38.9219017,30.577533 38.8538898,30.5095721 C47.6569949,27.6885059 50.0022836,20.312886 50.0022836,20.312886 C50.0022836,20.312886 50.9879463,20.4488078 51.0729867,20.3468409 C50.6141868,22.5221 49.3978751,24.5662806 49.5944162,24.2555876 C46.3314766,29.5238585 39.0578235,35.9817767 23.25296,35.6079152 C7.44809647,35.2340537 2.07785876,23.9837949 2.07785876,23.9837949 C2.07785876,23.9837949 -3.63228548,17.6619515 3.87925632,8.89280141 C11.3907981,0.12365132 24.0687459,-0.114288352 24.3406405,0.0216844582 C24.6125351,0.157657268 32.9398628,-0.828056382 41.2331845,3.38659089 C49.5265063,7.60123816 51.0729867,15.1467859 51.0729867,15.1467859 L49.7984009,15.1467859 C45.244051,4.44046938 32.6338603,3.52230878 32.7697821,3.52230878 Z M34.1719794,27.8246317 L39.3213059,27.8246317 L42.533262,7.38027597 L37.7408195,7.38027597 M23.8988181,8.24699429 C17.9592484,10.3118232 18.3926076,13.7277131 18.3671159,13.6002545 C19.9730939,17.678929 20.2535028,15.6650835 24.2811938,20.2026088 C28.3088849,24.7401341 23.1850501,25.912753 23.1595584,25.912753 C19.2083425,26.3970956 17.0160549,25.6578359 17.0160549,25.6578359 L15.1041763,25.2499684 L15.1041763,28.3854494 C15.1041763,28.3854494 16.9905632,28.69135 17.1690052,28.69135 C17.3474472,28.69135 25.4028293,29.5580683 29.0226529,28.2834826 C32.6424765,27.0088968 33.4837031,24.1793164 33.5601782,22.3184212 C33.6366534,20.457526 31.9032167,18.3672053 31.2404321,18.1632716 C30.5776475,17.9593378 27.7480671,15.8945089 27.7480671,15.8945089 C27.7480671,15.8945089 25.0204536,13.8041882 26.7283985,11.6883759 C28.4363434,9.57256349 35.905416,9.52158006 35.905416,9.52158006 L35.7524657,7.38027597 C29.5834706,6.53904936 23.8223429,8.34896115 23.8988181,8.24699429 L23.8988181,8.24699429 Z" fill-rule="nonzero"></path>
                </g>
            </g>
            <g id="医保logo" transform="translate(120.000000, 22.000000)" fill="#2484F6" fill-rule="nonzero">
                <g id="形状">
                    <path d="M32.7697821,3.52230878 C19.582051,1.48297155 12.8862441,8.21283539 12.8522382,8.21283539 C-0.981249053,20.244925 14.9255813,29.1840029 14.9255813,29.2179579 C26.243903,35.4718914 38.9219017,30.577533 38.8538898,30.5095721 C47.6569949,27.6885059 50.0022836,20.312886 50.0022836,20.312886 C50.0022836,20.312886 50.9879463,20.4488078 51.0729867,20.3468409 C50.6141868,22.5221 49.3978751,24.5662806 49.5944162,24.2555876 C46.3314766,29.5238585 39.0578235,35.9817767 23.25296,35.6079152 C7.44809647,35.2340537 2.07785876,23.9837949 2.07785876,23.9837949 C2.07785876,23.9837949 -3.63228548,17.6619515 3.87925632,8.89280141 C11.3907981,0.12365132 24.0687459,-0.114288352 24.3406405,0.0216844582 C24.6125351,0.157657268 32.9398628,-0.828056382 41.2331845,3.38659089 C49.5265063,7.60123816 51.0729867,15.1467859 51.0729867,15.1467859 L49.7984009,15.1467859 C45.244051,4.44046938 32.6338603,3.52230878 32.7697821,3.52230878 Z M34.1719794,27.8246317 L39.3213059,27.8246317 L42.533262,7.38027597 L37.7408195,7.38027597 M23.8988181,8.24699429 C17.9592484,10.3118232 18.3926076,13.7277131 18.3671159,13.6002545 C19.9730939,17.678929 20.2535028,15.6650835 24.2811938,20.2026088 C28.3088849,24.7401341 23.1850501,25.912753 23.1595584,25.912753 C19.2083425,26.3970956 17.0160549,25.6578359 17.0160549,25.6578359 L15.1041763,25.2499684 L15.1041763,28.3854494 C15.1041763,28.3854494 16.9905632,28.69135 17.1690052,28.69135 C17.3474472,28.69135 25.4028293,29.5580683 29.0226529,28.2834826 C32.6424765,27.0088968 33.4837031,24.1793164 33.5601782,22.3184212 C33.6366534,20.457526 31.9032167,18.3672053 31.2404321,18.1632716 C30.5776475,17.9593378 27.7480671,15.8945089 27.7480671,15.8945089 C27.7480671,15.8945089 25.0204536,13.8041882 26.7283985,11.6883759 C28.4363434,9.57256349 35.905416,9.52158006 35.905416,9.52158006 L35.7524657,7.38027597 C29.5834706,6.53904936 23.8223429,8.34896115 23.8988181,8.24699429 L23.8988181,8.24699429 Z"></path>
                </g>
            </g>
        </g>
    </g>
</svg>