<?xml version="1.0" encoding="UTF-8"?>
<svg width="72px" height="72px" viewBox="0 0 72 72" version="1.1" xmlns="http://www.w3.org/2000/svg" xmlns:xlink="http://www.w3.org/1999/xlink">
    <!-- Generator: Sketch 60 (88103) - https://sketch.com -->
    <title>缴费变更</title>
    <desc>Created with Sketch.</desc>
    <g id="页面-1" stroke="none" stroke-width="1" fill="none" fill-rule="evenodd">
        <g id="0医保服务大厅" transform="translate(-438.000000, -721.000000)">
            <g id="分组-6-copy备份-6" transform="translate(364.000000, 675.000000)">
                <g id="分组-6-copy">
                    <g id="icon1-copy" transform="translate(74.000000, 46.000000)">
                        <g id="编组">
                            <path d="M15.4,8 L64.2799999,8 C65.3182952,8 66.1599998,8.84170467 66.1599998,9.88 L66.1599998,62.5199999 C66.1599998,63.5582952 65.3182952,64.3999999 64.2799999,64.3999999 L7.88,64.3999999 C6.84170467,64.3999999 6,63.5582952 6,62.5199999 L6,8" id="矩形" stroke="#666666" stroke-width="2.11499994" fill-rule="nonzero" transform="translate(36.080000, 36.200000) scale(-1, -1) translate(-36.080000, -36.200000) "></path>
                            <path d="M11.4519999,11.76 L27.0199999,11.76 L27.0199999,11.76 L27.0199999,60.6399999 L11.4519999,60.6399999 C10.5175342,60.6399999 9.75999999,59.8824657 9.75999999,58.9479999 L9.75999999,13.4519999 C9.75999999,12.5175342 10.5175342,11.76 11.4519999,11.76 Z" id="矩形" fill="#EBEBEB"></path>
                            <path d="M34,38.1428571 L34,40.7198167 L27.0054076,48 L25.2545774,46.1826802 L30.501831,40.7198167 L14,40.7198167 L14,38.1428571 L34,38.1428571 Z M20.9928469,25 L22.743677,26.8231079 L17.4964234,32.2815258 L34,32.2815258 L34,34.8571429 L14,34.8571429 L14,32.2815258 L20.9928469,25 Z" id="形状结合" fill="#666666"></path>
                            <polygon id="路径" fill="#666666" points="42.5938825 26.4997366 44.5742886 24.8118261 50.0339923 31.0904234 55.6839106 24.8 57.6338824 26.5158632 52.6013465 32.1246718 59.3088548 32.1246718 59.305594 34.7049172 51.3165825 34.7049172 51.3165825 38.2348387 59.3077679 38.2348387 59.3045071 40.8150841 51.3165825 40.8150841 51.3165825 47.3567746 48.7014029 47.3599999 48.7014029 40.8150841 40.7199999 40.8150841 40.7199999 38.2348387 48.7014029 38.2348387 48.7014029 34.7038422 40.7199999 34.7038422 40.7199999 32.1235967 47.4840292 32.1235967"></polygon>
                        </g>
                    </g>
                </g>
            </g>
        </g>
    </g>
</svg>