<?xml version="1.0" encoding="UTF-8"?>
<svg width="72px" height="72px" viewBox="0 0 72 72" version="1.1" xmlns="http://www.w3.org/2000/svg" xmlns:xlink="http://www.w3.org/1999/xlink">
    <!-- Generator: Sketch 55 (78076) - https://sketchapp.com -->
    <title>人员变更情况查询</title>
    <desc>Created with Sketch.</desc>
    <g id="组件" stroke="none" stroke-width="1" fill="none" fill-rule="evenodd">
        <g id="人员变更情况查询">
            <g id="icon1">
                <rect id="矩形" stroke="#666666" stroke-width="2.7" fill-rule="nonzero" x="2.65" y="11.65" width="64.7" height="44.7" rx="1.8"></rect>
                <path d="M7.5,14.5003169 L23,14.5003169 L23,53.5 L7.5,53.5 C6.67157288,53.5 6,52.8284271 6,52 L6,16.0003169 C6,15.1718898 6.67157288,14.5003169 7.5,14.5003169 Z" id="矩形-copy-10" fill="#EBEBEB"></path>
                <polygon id="路径" fill="#666666" fill-rule="nonzero" points="34 39.8099211 50 39.8099211 50 37.1099211 34 37.1099211"></polygon>
                <polygon id="路径" fill="#666666" fill-rule="nonzero" points="34 28.7 55 28.7 55 26 34 26 34 28.6981744"></polygon>
                <path d="M16.2435029,30.8157885 L18.9452535,32.4512512 L15.8560606,33.1078192 C14.7585025,33.3410909 13.8120795,33.8655306 13.1631803,34.7653451 C12.5175815,35.6602203 11.2001444,39.7459909 10.3995369,43.0462029 C10.3340288,43.2859368 10.3002981,43.4500818 10.2900609,43.51876 L10.2620744,43.654441 C10.2329237,43.7645274 10.2212132,43.75 10.3954413,43.75 L27.6198249,43.75 C27.7874484,43.7500105 27.7652861,43.7778324 27.715211,43.5855307 L27.6557743,43.2834077 C26.9431674,40.3144846 25.4026751,35.829756 24.6764169,34.9446964 L24.5547306,34.7671991 C24.1480069,34.0481713 23.3270485,33.5430279 22.2018588,33.250348 L19.1407472,32.4541038 L21.9191797,30.9425742 C23.6142335,30.020427 24.6730769,28.3153602 24.6730769,26.4386569 C24.6730769,23.5856418 22.2315609,21.25 19.1913287,21.25 C16.1520077,21.25 13.7115385,23.585402 13.7115385,26.4386569 C13.7115385,28.2290925 14.6737002,29.8655328 16.2435029,30.8157885 Z" id="形状" stroke="#666666" stroke-width="2.5"></path>
                <rect id="矩形" fill="#FFFFFF" x="36" y="40" width="36" height="31"></rect>
                <g id="变更-(3)" transform="translate(55.500000, 55.000000) rotate(-45.000000) translate(-55.500000, -55.000000) translate(44.000000, 44.000000)" fill-rule="nonzero" stroke="#666666" stroke-width="2.5">
                    <g id="编组" transform="translate(-0.000000, 0.226334)">
                        <path d="M6.33299344,15.7791342 C12.3146621,15.7791342 17.1637627,11.078124 17.1637627,5.27913417 C17.1637627,2.50053643 16.0504739,-0.0259798119 14.2327405,-1.90405629 C12.9869929,-3.19115879 11.4103836,-4.17370375 9.63451311,-4.72410972" id="椭圆形" transform="translate(11.748378, 5.527512) rotate(-90.000000) translate(-11.748378, -5.527512) "></path>
                        <polygon id="路径-2" points="0.654137384 3.74651368 0.654137384 7.13112907 3.9407808 7.13112907"></polygon>
                    </g>
                    <g id="编组备份" transform="translate(12.000000, 16.500000) scale(-1, -1) translate(-12.000000, -16.500000) translate(1.000000, 11.000000)">
                        <path d="M6.34777285,15.7643548 C12.3294415,15.7643548 17.1785421,11.0633446 17.1785421,5.26435476 C17.1785421,2.48575702 16.0652533,-0.0407592203 14.2475199,-1.91883569 C13.0237683,-3.183212 11.4807359,-4.15369087 9.74317437,-4.70933032" id="椭圆形" transform="translate(11.763157, 5.527512) rotate(-90.000000) translate(-11.763157, -5.527512) "></path>
                        <polygon id="路径-2" points="0.802306378 3.89468268 0.802306378 7.27929806 4.0889498 7.27929806"></polygon>
                    </g>
                </g>
            </g>
        </g>
    </g>
</svg>