<?xml version="1.0" encoding="UTF-8"?>
<svg width="72px" height="72px" viewBox="0 0 72 72" version="1.1" xmlns="http://www.w3.org/2000/svg" xmlns:xlink="http://www.w3.org/1999/xlink">
    <!-- Generator: Sketch 55 (78076) - https://sketchapp.com -->
    <title>个人信息变更</title>
    <desc>Created with Sketch.</desc>
    <g id="组件" stroke="none" stroke-width="1" fill="none" fill-rule="evenodd">
        <g id="个人信息变更">
            <g id="icon1">
                <g id="编组-2" transform="translate(24.000000, 22.000000)" stroke="#666666" stroke-width="2.5">
                    <path d="M11.8168826,14.754758 L8.43477697,15.3445514 C6.96866622,15.6002213 5.67246719,16.2705519 4.79504308,17.4942094 C3.9922076,18.613392 2.40694553,23.5578624 1.43876055,27.5721462 C1.35728931,27.8720026 1.31472465,28.0803198 1.30095725,28.1732089 L1.27326731,28.3082145 C1.19366814,28.6105351 1.30545165,28.75 1.67452954,28.75 L22.3437747,28.75 C22.7062305,28.7500229 22.8059944,28.6240668 22.7031397,28.2409304 L22.6296495,27.8664014 C21.7644868,24.2412907 19.9090017,18.808678 19.002752,17.6979598 L18.881779,17.5205094 C18.2798373,16.4502839 17.0104711,15.7662862 15.3341498,15.4397978 L11.8168826,14.754758 Z M11.8876037,14.5587482 L15.0429181,13.080867 C17.3060529,12.0208634 18.75,9.87502854 18.75,7.49914159 C18.75,4.06641977 15.7455862,1.25 11.9988364,1.25 C8.25315102,1.25 5.25,4.0661544 5.25,7.49914159 C5.25,9.81068027 6.61530276,11.9066972 8.78174423,12.9964516 L11.8876037,14.5587482 Z" id="形状"></path>
                </g>
                <path d="M28.6896141,9 C17.0495621,13.016722 7.88536799,24.0112883 7.88536799,37 C7.88536799,49.8941977 16.9283403,60.91132 28.4360361,65 C21.2721109,58.699005 17.6901482,49.3656717 17.6901482,37 C17.6901482,24.6343283 21.3566369,15.300995 28.6896141,9 Z" id="椭圆形" fill="#EBEBEB"></path>
                <g id="变更-(3)" transform="translate(4.000000, 4.000000)" fill-rule="nonzero" stroke="#666666" stroke-width="2.5">
                    <g id="编组" transform="translate(0.000000, 0.668714)">
                        <path d="M16.7569617,47.5743244 C34.4300737,47.5743244 48.7569617,33.2474364 48.7569617,15.5743244 C48.7569617,7.10621702 45.4676993,-0.593641993 40.0971234,-6.31730363 C36.4165056,-10.2399017 31.7583418,-13.2343245 26.5114516,-14.9117522" id="椭圆形" transform="translate(32.756962, 16.331286) rotate(-90.000000) translate(-32.756962, -16.331286) "></path>
                        <polyline id="路径-2" points="-2.13162821e-14 12.0911118 -2.13162821e-14 22.0911118 10.0164371 22.0911118"></polyline>
                    </g>
                    <g id="编组备份" transform="translate(32.000000, 48.500000) scale(-1, -1) translate(-32.000000, -48.500000) translate(0.000000, 32.000000)">
                        <path d="M16.8020037,47.5292824 C34.4751157,47.5292824 48.8020037,33.2023944 48.8020037,15.5292824 C48.8020037,7.06117501 45.5127413,-0.638683999 40.1421654,-6.36234564 C36.5265358,-10.2156829 31.9675763,-13.1733328 26.8338718,-14.8667102" id="椭圆形" transform="translate(32.802004, 16.331286) rotate(-90.000000) translate(-32.802004, -16.331286) "></path>
                        <polyline id="路径-2" points="-2.13162821e-14 12.0911118 -2.13162821e-14 22.0911118 10.0164371 22.0911118"></polyline>
                    </g>
                </g>
            </g>
        </g>
    </g>
</svg>