<?xml version="1.0" encoding="UTF-8"?>
<svg width="72px" height="72px" viewBox="0 0 72 72" version="1.1" xmlns="http://www.w3.org/2000/svg" xmlns:xlink="http://www.w3.org/1999/xlink">
    <!-- Generator: Sketch 60 (88103) - https://sketch.com -->
    <title>打印</title>
    <desc>Created with Sketch.</desc>
    <g id="页面-1" stroke="none" stroke-width="1" fill="none" fill-rule="evenodd">
        <g id="0医保服务大厅" transform="translate(-438.000000, -1570.000000)">
            <g id="分组-6-copy备份-14" transform="translate(364.000000, 1524.000000)">
                <g id="分组-6-copy">
                    <g id="icon1-copy" transform="translate(74.000000, 46.000000)">
                        <g id="社会保险服务-跨年补缴设置">
                            <path d="M63.5824595,66.4149128 L8.37868235,66.4149128 C5.97696197,66.4149128 4.02621965,64.3173404 4.02621965,61.7373263 L4.02621965,25.8087413 C4.02621965,23.2287272 5.97696197,21.1311549 8.37868235,21.1311549 L14.9873671,21.1311549 L14.9873671,23.5433631 L8.37868235,23.5433631 C7.32465223,23.5433631 6.4384279,24.5816614 6.4384279,25.8087413 L6.4384279,61.7373263 C6.4384279,62.9644062 7.32465223,64.0027045 8.37868235,64.0027045 L63.5877034,64.0027045 C64.6417336,64.0027045 65.5279579,62.9644062 65.5279579,61.7373263 L65.5279579,25.8087413 C65.5279579,24.5816614 64.6417336,23.5433631 63.5877034,23.5433631 L56.2304683,23.5433631 L56.2304683,21.1311549 L63.5877034,21.1311549 C65.9894238,21.1311549 67.9401661,23.2287272 67.9401661,25.8087413 L67.9401661,61.7373263 C67.9349222,64.3173404 65.9841799,66.4149128 63.5824595,66.4149128 Z" id="路径" fill="#666666" fill-rule="nonzero"></path>
                            <path d="M49.1644793,32.1801174 L22.2368938,32.1801174 C21.5709145,32.1801174 21.0307896,31.6399925 21.0307896,30.9740133 C21.0307896,30.308034 21.5709145,29.7679092 22.2368938,29.7679092 L49.1644793,29.7679092 C49.8304585,29.7679092 50.3705834,30.308034 50.3705834,30.9740133 C50.3705834,31.6399925 49.8304585,32.1801174 49.1644793,32.1801174 Z" id="路径" fill="#666666" fill-rule="nonzero"></path>
                            <path d="M55.3282627,32.0962145 L15.9729766,32.0962145 C14.960898,32.0962145 14.1376008,31.2729173 14.1376008,30.2608387 L14.1376008,7.83537584 C14.1376008,6.82329716 14.960898,6 15.9729766,6 L55.3282627,6 C56.3403413,6 57.1636385,6.82329716 57.1636385,7.83537584 L57.1636385,30.2608387 C57.1636385,31.2729173 56.3403413,32.0962145 55.3282627,32.0962145 Z M16.549809,29.6840063 L54.7514302,29.6840063 L54.7514302,8.41220824 L16.549809,8.41220824 L16.549809,29.6840063 Z" id="形状" fill="#666666" fill-rule="nonzero"></path>
                            <path d="M20.1280006,9.84000015 L51.2320019,9.84000015 C52.18635,9.84000015 52.9600019,10.6136521 52.9600019,11.5680002 L52.9600019,26.3520009 C52.9600019,27.3063489 52.18635,28.0800009 51.2320019,28.0800009 L20.1280006,28.0800009 C19.1736525,28.0800009 18.4000006,27.3063489 18.4000006,26.3520009 L18.4000006,11.5680002 C18.4000006,10.6136521 19.1736525,9.84000015 20.1280006,9.84000015 Z" id="矩形" fill="#EBEBEB"></path>
                            <rect id="矩形" fill="#666666" fill-rule="nonzero" x="21" y="12" width="29" height="2.5"></rect>
                            <rect id="矩形备份" fill="#666666" fill-rule="nonzero" x="21" y="19" width="29" height="2.5"></rect>
                            <polygon id="路径" fill="#666666" points="29 39.8082305 31.1068151 38.012581 36.9150105 44.6919398 42.9255619 38 45 39.8253864 39.6462384 45.7922041 44.7818856 45.7922041 44.7784166 48.5371461 38.2794681 48.5371461 38.2794681 51.2923816 44.7807293 51.2923816 44.7772603 54.0373236 38.2794681 54.0373236 38.2794681 59.9965688 35.4973622 60 35.4973622 54.0373236 29.0065079 54.0373236 29.0065079 51.2923816 35.4973622 51.2923816 35.4973622 48.5360024 29.0065079 48.5360024 29.0065079 45.7910603 34.2022838 45.7910603"></polygon>
                        </g>
                    </g>
                </g>
            </g>
        </g>
    </g>
</svg>