<?xml version="1.0" encoding="UTF-8"?>
<svg width="72px" height="72px" viewBox="0 0 72 72" version="1.1" xmlns="http://www.w3.org/2000/svg" xmlns:xlink="http://www.w3.org/1999/xlink">
    <!-- Generator: Sketch 60 (88103) - https://sketch.com -->
    <title>职工新参保</title>
    <desc>Created with Sketch.</desc>
    <g id="页面-1" stroke="none" stroke-width="1" fill="none" fill-rule="evenodd">
        <g id="0医保服务大厅" transform="translate(-682.000000, -477.000000)">
            <g id="分组-6-copy备份-2" transform="translate(608.000000, 431.000000)">
                <g id="分组-6-copy">
                    <g id="icon1-copy" transform="translate(74.000000, 46.000000)">
                        <g id="计划书">
                            <rect id="矩形" stroke="#666666" stroke-width="2.24999994" fill-rule="nonzero" x="6.87500003" y="4.87500003" width="50.6037577" height="62.1165572" rx="1.3815359"></rect>
                            <rect id="矩形" fill="#FFFFFF" x="29.2799978" y="26.4799976" width="38" height="44"></rect>
                            <polygon id="路径" fill="#666666" fill-rule="nonzero" points="15.6115445 50.0482821 32.2515438 50.0482821 32.2515438 47.5482821 15.6115445 47.5482821"></polygon>
                            <polygon id="路径" fill="#666666" fill-rule="nonzero" points="37.4515436 40.5737418 37.4515436 38.0737418 15.6115445 38.0737418 15.6115445 40.5720515"></polygon>
                            <text id="NEW" font-family="FZZDHJW--GB1-0, FZZhengHeiS-EB-GB" font-size="10.7999997" font-weight="normal" letter-spacing="0.462857157" fill="#666666">
                                <tspan x="15" y="27.777778">NEW</tspan>
                            </text>
                            <path d="M52.9417856,33.9258979 L59.3114677,37.7014331 C60.1666408,38.2083243 60.448979,39.3124956 59.9420878,40.1676687 C59.9415913,40.1685063 59.9410941,40.1693435 59.9405963,40.1701803 L45.7954769,63.946274 L45.7954769,63.946274 L37.8164477,66.8616589 L36.5412581,58.5422644 L50.4675552,34.5701419 C50.9669221,33.7105534 52.0685731,33.4185361 52.9281617,33.9179031 C52.9327147,33.9205481 52.937256,33.923213 52.9417856,33.9258979 Z" id="路径-3" stroke="#666666" stroke-width="2.24999994" fill="#FFFFFF"></path>
                            <path d="M53.7575479,37.0144768 L56.1289729,38.4567516 C56.968129,38.9671172 57.243246,40.0559599 56.7472365,40.9036808 L44.6510686,61.5770212 L44.6510686,61.5770212 L40.0580951,63.2989598 L39.3240569,58.385205 L51.262364,37.6541182 C51.7584603,36.792638 52.8589935,36.4964358 53.7204737,36.9925321 C53.7329189,36.9996988 53.7452778,37.0070142 53.7575479,37.0144768 Z" id="路径-3" fill="#EBEBEB"></path>
                        </g>
                    </g>
                </g>
            </g>
        </g>
    </g>
</svg>