<?xml version="1.0" encoding="UTF-8"?>
<svg width="72px" height="72px" viewBox="0 0 72 72" version="1.1" xmlns="http://www.w3.org/2000/svg" xmlns:xlink="http://www.w3.org/1999/xlink">
    <!-- Generator: Sketch 60 (88103) - https://sketch.com -->
    <title>证明</title>
    <desc>Created with Sketch.</desc>
    <g id="页面-1" stroke="none" stroke-width="1" fill="none" fill-rule="evenodd">
        <g id="0医保服务大厅" transform="translate(-194.000000, -1570.000000)">
            <g id="分组-6-copy备份-12" transform="translate(120.000000, 1524.000000)">
                <g id="分组-6-copy">
                    <g id="icon1-copy" transform="translate(74.000000, 46.000000)">
                        <g id="icon1">
                            <g id="计划书" transform="translate(6.000000, 5.000000)">
                                <rect id="矩形" stroke="#666666" stroke-width="2.42999994" fill-rule="nonzero" x="-1.21499997" y="-1.21499997" width="51.4299999" height="63.4299999" rx="1.61999996"></rect>
                                <polygon id="路径" fill="#666666" fill-rule="nonzero" points="11.3643818 50.2472373 27.3643818 50.2472373 27.3643818 47.5472373 11.3643818 47.5472373"></polygon>
                                <polygon id="路径" fill="#666666" fill-rule="nonzero" points="11.3643818 39.1373162 32.3643818 39.1373162 32.3643818 36.4373162 11.3643818 36.4373162 11.3643818 39.1354906"></polygon>
                                <rect id="矩形" fill="#FFFFFF" x="30" y="29" width="36" height="36"></rect>
                                <g id="编组" transform="translate(34.000000, 34.000000)">
                                    <circle id="椭圆形" stroke="#666666" stroke-width="2.24999994" fill="#FFFFFF" cx="13.5" cy="13.5" r="13.5"></circle>
                                    <circle id="椭圆形" fill="#EBEBEB" cx="13.5" cy="13.5" r="10.5"></circle>
                                    <polygon id="路径备份-2" fill="#666666" fill-rule="nonzero" transform="translate(26.353553, 26.703553) rotate(-315.000000) translate(-26.353553, -26.703553) " points="20.8535534 28.0535534 31.8535534 28.0535534 31.8535534 25.3535534 20.8535534 25.3535534"></polygon>
                                </g>
                                <path d="M33.8227367,16.4823251 C32.5096752,18.1884374 30.1461645,20.8132255 30.1461645,20.8132255 C30.1461645,20.8132255 30.5400829,23.8317318 30.8026952,25.8003229 C30.9340014,26.8502382 30.1461645,27.2439564 29.3583276,26.8502382 C27.7826538,26.0628017 25.2878369,24.7504077 24.7626123,24.4879289 C24.2373877,24.7504077 21.7425708,26.0628017 20.0355909,26.8502382 C19.1164478,27.2439564 18.4599171,26.8502382 18.4599171,25.8003229 C18.7225294,23.8317318 19.1164478,20.8132255 19.1164478,20.8132255 C19.1164478,20.8132255 16.621631,18.057198 15.1772633,16.4823251 C14.7833449,15.826128 15.0459572,15.0386916 15.9651002,14.7762128 C17.9346925,14.513734 20.9547339,13.857537 20.9547339,13.857537 C20.9547339,13.857537 22.6617139,10.8390306 23.5808569,9.00167893 C24.1060815,7.82052428 24.5,7.95176368 24.6313062,8.08300309 C24.7626123,8.08300309 25.0252246,8.3454819 25.4191431,9.00167893 C26.4695923,10.8390306 28.0452661,13.857537 28.0452661,13.857537 C28.0452661,13.857537 31.0653075,14.513734 33.0348998,14.9074522 C33.9540428,15.0386916 34.2166551,15.826128 33.8227367,16.4823251 Z" id="路径" stroke="#666666" stroke-width="2.24999994" fill="#FFFFFF"></path>
                            </g>
                        </g>
                    </g>
                </g>
            </g>
        </g>
    </g>
</svg>