<?xml version="1.0" encoding="UTF-8"?>
<svg width="72px" height="72px" viewBox="0 0 72 72" version="1.1" xmlns="http://www.w3.org/2000/svg" xmlns:xlink="http://www.w3.org/1999/xlink">
    <!-- Generator: Sketch 60 (88103) - https://sketch.com -->
    <title>退休申请</title>
    <desc>Created with Sketch.</desc>
    <g id="页面-1" stroke="none" stroke-width="1" fill="none" fill-rule="evenodd">
        <g id="0医保服务大厅" transform="translate(-926.000000, -477.000000)">
            <g id="分组-6-copy备份-3" transform="translate(852.000000, 431.000000)">
                <g id="分组-6-copy">
                    <g id="icon1-copy" transform="translate(74.000000, 46.000000)">
                        <g id="icon_退休养老">
                            <path d="M43,64.6312224 C30.6475703,64.6312224 21.0542199,56.2318481 18.6677749,41.028597 C16.2813299,25.825346 18.4457801,20.9468053 21.8787724,13 C17.7322251,15.3625637 12,20.9237933 12,39.8933391 C12,58.862885 25.2800512,70.0543801 43,64.6312224 Z M29,8.41561555 C41.3555897,8.41561555 46.6531082,12.4456519 50.8403684,16.9120111 C55.035559,21.3863035 56.4233819,25.5829358 60,34 C60,14.3813387 46.724482,2.80688383 29,8.41561555 Z" id="形状" fill="#EBEBEB"></path>
                            <path d="M30.9995074,19.2114389 L40.9181511,19.2114389 L40.9181511,21.7114389 L30.9995074,21.7114389 L30.9995074,19.2114389 Z M27.2762703,26.2533763 L44.6338968,26.2533763 L44.6338968,28.7533763 L27.2762703,28.7533763 L27.2762703,26.2533763 Z M40.4087344,46.7424175 C38.9628898,46.1505951 37.4646053,46.7424175 35.794018,46.7424175 C33.8911966,46.7424175 32.8274146,45.9782924 31.2167587,46.7424175 C28.7221149,47.9260623 29.2015659,49.9712207 26.4671966,52.1512248 C24.0399757,54.0840118 19.6500019,55.6871763 21.5453319,57.2753579 C28.8269948,61.5454689 30.8122218,60.4517212 34.6028818,58.2642257 C34.8800644,58.0994144 35.1272814,57.9420946 35.9588293,57.9420946 C36.7903772,57.9420946 36.9402057,58.0769402 37.2173883,58.1743287 C42.9258525,60.4217555 43.0157495,61.4181147 50.4547323,57.2678665 C52.2751481,55.7545991 47.2034549,53.8517777 45.1582964,51.8216022 C42.581247,49.2595356 43.2704579,47.9185709 40.4087344,46.7424175 Z M44.0647839,58.1562259 C43.6425431,58.0970034 43.1235388,57.919336 42.2614639,57.5442603 C41.9095966,57.3863336 39.3267747,56.3917113 38.403123,55.9771539 C37.5674381,55.572467 36.8021267,55.3947995 35.6145745,55.3947995 C34.8668564,55.3947995 34.3005981,55.7765219 33.6848303,55.9739302 C33.1306393,56.1515976 32.7875686,56.3391355 32.3125478,56.6451183 L32.277361,56.6747295 C28.7850779,58.9449246 26.9355947,58.2687691 23.4433115,56.3440385 C23.4960916,56.3045569 23.5488717,56.2749457 23.6104485,56.235464 C24.762814,55.4260901 25.1072304,55.4033302 26.2122148,54.7199823 C27.5843445,53.8714256 28.6194528,53.3789459 29.3231875,52.28333 C29.5958846,51.8589022 29.8421918,51.4344745 30.0972956,50.9606946 C30.2204491,50.7238047 30.5899098,50.0032646 30.6338932,49.9341717 C31.0913207,49.0557049 31.223271,48.8780375 31.6455118,48.6608884 C31.751072,48.6016659 32.1997028,48.6016659 31.9006156,48.6115363 C32.0765492,48.6214067 32.3664783,48.5227026 33.0526195,48.6608884 C34.0642381,48.8582966 36.3697197,48.9413175 37.4077283,48.7932613 C38.6304672,48.6155939 39.609548,48.595853 39.7678883,48.6748164 C40.5507931,49.0301512 40.6563533,49.1485962 41.0434074,49.8296547 C41.1137808,49.9579701 41.4216647,50.530454 41.4744448,50.6192878 C41.6943619,51.0239747 41.8966856,51.3694392 42.107806,51.724774 C42.6883871,52.6624633 43.5848066,53.2858749 44.4028982,54.193953 C45.2473797,55.1415126 46.5366331,55.5001504 48.146426,56.6747295 C46.343106,57.592678 44.7861119,58.2746708 44.0647839,58.1562259 Z" id="形状" fill="#666666" fill-rule="nonzero"></path>
                            <path d="M71.9176586,36.8462481 C71.9176586,31.0778525 67.3853478,26.3582562 63.4148937,25.9162622 C60.0587363,10.3341029 49.0388534,3.00749142 35.9588293,3.00749142 C22.7439595,3.00749142 11.641671,9.80970329 8.39788492,26.0660907 C4.51732793,26.9950271 0,31.4674065 0,36.8462481 C0,42.3000038 4.65217354,46.8173318 8.56269622,47.6638625 C11.9862764,63.3733761 22.9537194,69.9658281 35.9588293,69.9658281 C48.836585,69.9658281 59.7141309,62.8714507 63.2575738,47.7837253 C67.2579936,47.4541027 71.9176586,42.6895578 71.9176586,36.8462481 Z M2.52492429,36.8442575 C2.52492429,33.5496601 5.46464608,30.1898232 8.40436788,28.8687223 C8.07979291,31.241811 7.89432151,33.7535337 7.89432151,36.4528202 C7.89432151,39.4701494 8.1168872,42.2672952 8.52492429,44.8687223 C5.53883465,43.5883961 2.52492429,40.1877845 2.52492429,36.8442575 Z M36,68.0074914 C19.8697318,68.0074914 10,57.5515112 10,36.5074914 C10,15.4634717 19.8697318,5.00749142 36,5.00749142 C51.7624521,5.00749142 62,16.0926949 62,36.5074914 C62,56.922288 51.7624521,68.0074914 36,68.0074914 Z M63.3552772,44.8687223 C63.8210306,42.2698965 64.0676059,39.4753759 64.0676059,36.4695051 C64.0676059,33.7767458 63.8575603,31.2483701 63.483131,28.8687223 C66.3415785,29.7924014 69.3552772,33.2209728 69.3552772,36.845239 C69.3552772,40.5164718 66.2593867,43.9998378 63.3552772,44.8687223 L63.3552772,44.8687223 Z" id="形状" fill="#666666" fill-rule="nonzero"></path>
                            <path d="M22.5341997,40.8541592 C22.5341997,42.5670422 23.9227657,43.9556083 25.6356487,43.9556083 C27.3485317,43.9556083 28.7370977,42.5670422 28.7370977,40.8541592 C28.7370977,39.1412762 27.3485317,37.7527102 25.6356487,37.7527102 C23.9227657,37.7527102 22.5341997,39.1412762 22.5341997,40.8541592 L22.5341997,40.8541592 Z" id="路径" fill="#666666" fill-rule="nonzero"></path>
                            <path d="M43.8248232,40.8541592 C43.8248232,42.5670422 45.2133892,43.9556083 46.9262722,43.9556083 C48.6391552,43.9556083 50.0277212,42.5670422 50.0277212,40.8541592 C50.0277212,39.1412762 48.6391552,37.7527102 46.9262722,37.7527102 C45.2133892,37.7527102 43.8248232,39.1412762 43.8248232,40.8541592 Z" id="路径" fill="#666666" fill-rule="nonzero"></path>
                        </g>
                    </g>
                </g>
            </g>
        </g>
    </g>
</svg>