<?xml version="1.0" encoding="UTF-8"?>
<svg width="72px" height="72px" viewBox="0 0 72 72" version="1.1" xmlns="http://www.w3.org/2000/svg" xmlns:xlink="http://www.w3.org/1999/xlink">
    <!-- Generator: Sketch 55 (78076) - https://sketchapp.com -->
    <title>生育津贴申领</title>
    <desc>Created with Sketch.</desc>
    <g id="组件" stroke="none" stroke-width="1" fill="none" fill-rule="evenodd">
        <g id="生育津贴申领">
            <g id="生育收养">
                <g id="编组-2" transform="translate(3.000000, 5.000000)">
                    <path d="M40.1203898,56.3363292 C35.8558717,55.6819042 27.1317623,52.8750436 20.0611494,41.5793132 C17.2964391,37.1625219 11.0264074,23.2812942 23.6409138,8.326176 C19.2606849,10.2835457 9.13670174,18.0756221 9.1204032,32.9791851 C9.10410467,47.8827481 23.9132425,61.104981 40.1203898,56.3363292 Z" id="形状" fill="#EBEBEB"></path>
                    <path d="M33.3399436,51.0060156 C22.8239074,51.0060156 17.8335017,41.2667898 17.6299655,40.8529836 C17.3133537,40.210106 17.5771969,39.4416087 18.2330357,39.1238646 C18.8888745,38.8061205 19.6728657,39.0721388 19.9970159,39.707627 C20.0422462,39.7962997 24.4898888,48.4123371 33.3399436,48.4123371 C42.3030741,48.4123371 48.2734688,39.6559012 48.3337758,39.5672284 C48.7333098,38.9686872 49.5474545,38.8061205 50.1580631,39.1977585 C50.7686716,39.5893966 50.9345159,40.3874515 50.5425203,40.9859927 C50.2636004,41.399799 43.7504425,51.0060156 33.3399436,51.0060156 L33.3399436,51.0060156 Z" id="路径" fill="#666666" fill-rule="nonzero"></path>
                    <path d="M19.9894776,30.8551289 C19.9894776,32.769142 21.5723743,34.3207563 23.5249765,34.3207563 C25.4775786,34.3207563 27.0604754,32.769142 27.0604754,30.8551289 C27.0604754,29.6169794 26.3866131,28.4728822 25.292726,27.8538074 C24.1988388,27.2347327 22.8511142,27.2347327 21.757227,27.8538074 C20.6633398,28.4728822 19.9894775,29.6169794 19.9894776,30.8551289 L19.9894776,30.8551289 Z" id="路径" fill="#666666" fill-rule="nonzero"></path>
                    <path d="M41.5793898,30.8551289 C41.5793898,32.0932783 42.2532521,33.2373756 43.3471393,33.8564504 C44.4410264,34.4755251 45.7887511,34.4755251 46.8826382,33.8564504 C47.9765254,33.2373756 48.6503877,32.0932783 48.6503877,30.8551289 C48.6503877,29.6169794 47.9765254,28.4728821 46.8826382,27.8538074 C45.7887511,27.2347327 44.4410264,27.2347327 43.3471393,27.8538074 C42.2532521,28.4728821 41.5793898,29.6169794 41.5793898,30.8551289 L41.5793898,30.8551289 Z" id="路径" fill="#666666" fill-rule="nonzero"></path>
                    <path d="M44.1650532,18.1231971 C40.3204809,18.1231971 36.8754425,16.0024401 36.7095982,15.8989885 C36.0989896,15.5147399 35.9180686,14.7166849 36.3100642,14.1181438 C36.7020598,13.5196026 37.5162045,13.3348676 38.1268131,13.7191163 C38.164505,13.7412845 42.122153,16.1650068 45.6124216,15.3891201 C47.1200971,15.0565972 48.3111607,14.1846483 49.2459195,12.728937 C50.1429863,11.3323409 50.3917528,9.9874706 50.0072955,8.61304268 C48.9896146,4.99962735 44.0067473,2.47245344 43.9539787,2.44289585 C43.3056782,2.11776236 43.0493734,1.34187564 43.3735236,0.706387459 C43.7052122,0.0708992822 44.4967418,-0.18034023 45.1450423,0.137403859 C45.3938087,0.263023615 51.2134359,3.19661439 52.5477287,7.91104993 C53.1357221,9.99486 52.77388,12.0786701 51.4772791,14.0959756 C50.1656015,16.1428386 48.3790061,17.4212044 46.1777999,17.9015152 C45.5068844,18.0566926 44.8284304,18.1231971 44.1650532,18.1231971 L44.1650532,18.1231971 Z" id="路径" fill="#666666" fill-rule="nonzero"></path>
                    <path d="M61.6993186,29.8280026 C60.7193295,29.2368508 60.9002506,28.3575126 60.9002506,27.4781743 C60.9002506,27.4781743 60.9002506,27.3821121 60.8851738,27.2786605 C60.3876409,24.0938303 59.3021146,19.9705465 57.0029096,16.0098295 C56.9953712,15.9950507 56.9953712,15.9876613 56.9878328,15.9728825 C56.9802945,15.9654931 56.9727561,15.9581037 56.9652177,15.9433249 C56.9576793,15.9285461 56.9501409,15.9211567 56.9426026,15.9063779 L56.9350642,15.9137673 C56.5732221,15.3447837 55.8269227,15.1378806 55.2163142,15.4556247 C54.5830905,15.795537 54.3494008,16.5640343 54.6961662,17.1847437 C56.6636826,20.5616983 57.7265938,24.21945 58.2618186,27.566847 C58.2618186,29.480701 58.4276629,29.8945072 58.4653548,30.020127 C58.4653548,30.020127 58.3598175,31.1285366 59.4830357,31.6457944 C59.6564184,31.7049096 63.7799107,33.0867269 63.2145324,37.9858974 C62.7019227,42.4564828 58.5558153,42.9959088 58.3824326,43.0106876 L57.7718241,43.0771922 L57.2441377,43.8530789 C48.9293076,56.1859832 39.5892583,58.7796617 33.2117912,58.7796617 C18.519494,58.7796617 10.1594337,44.2521064 10.0765116,44.1043184 L9.6995927,43.4392727 L8.92313985,43.4392727 C8.16176375,43.4392727 2.7567473,42.2643585 2.63613327,37.5277547 C2.53813437,33.7813303 4.05334818,32.7246464 5.27456529,31.8822551 C5.61379226,31.6457944 5.9304041,31.4315019 6.1942473,31.1654836 C7.43054116,29.9536224 7.69438437,27.9141487 7.73961463,27.4190591 C12.5566377,3.35918113 35.1340773,5.4429912 36.4005247,5.57600035 C37.0639019,5.67945191 37.6745105,5.81246107 38.3001958,5.94547022 L38.3077341,5.92330203 C38.345426,5.93069143 38.3755795,5.96024902 38.4132714,5.96763841 C39.1294173,6.11542636 39.8380247,5.67206252 39.9887923,4.97006976 C40.1395598,4.26807701 39.6872572,3.58825245 38.9786497,3.4330751 L38.9711113,3.4330751 C38.2625039,3.28528715 37.5388197,3.13749921 36.784982,3.02665824 L36.7397517,3.01926885 C36.4759085,2.98971126 10.445892,0.322138794 5.15395125,27.0052528 L5.13133612,27.1604302 C5.09364423,27.640741 4.85241616,28.8526022 4.33980651,29.3476918 C4.19657735,29.4880904 3.98550279,29.6284889 3.75935147,29.7836663 C2.40244358,30.7295091 -0.130451161,32.4881857 0.00523962869,37.6090381 C0.148468795,43.0624134 5.27456529,45.5600297 8.13914862,45.973836 C9.97851266,48.9369843 18.579801,61.3807296 33.2193295,61.3807296 C40.1998668,61.3807296 50.3842144,58.6170949 59.309653,45.4935251 C61.6314732,45.0058249 65.2875861,43.0698028 65.8378877,38.2888627 C66.3655741,33.7591621 63.8176026,31.1063684 61.6993186,29.8280026 Z" id="路径" fill="#666666" fill-rule="nonzero"></path>
                </g>
            </g>
        </g>
    </g>
</svg>