<?xml version="1.0" encoding="UTF-8"?>
<svg width="72px" height="72px" viewBox="0 0 72 72" version="1.1" xmlns="http://www.w3.org/2000/svg" xmlns:xlink="http://www.w3.org/1999/xlink">
    <!-- Generator: Sketch 55 (78076) - https://sketchapp.com -->
    <title>生育津贴申领结果</title>
    <desc>Created with Sketch.</desc>
    <g id="组件" stroke="none" stroke-width="1" fill="none" fill-rule="evenodd">
        <g id="生育津贴申领结果">
            <g id="生育收养">
                <g id="编组" transform="translate(8.000000, 6.000000)">
                    <path d="M51.9499368,0 L21.4820127,2.94471819e-05 C20.878934,2.94471819e-05 20.3900422,0.488921276 20.3900422,1.09199991 C20.3900422,1.15238991 20.3950519,1.21267584 20.4050197,1.27223753 C21.1608942,5.78889455 20.0176066,9.72705264 16.975157,13.0867118 C11.9880214,18.5938122 0,21.9499798 0,34.7068966 C7.04302828e-16,47.4638133 8.8590476,52.6024395 11.4361294,53.8979061 C12.6417352,54.503949 15.478962,55.8551875 16.975157,57.0752587 C17.5309927,57.5285146 18.1052536,58.1354397 18.6979399,58.896034 L18.6979345,58.8960382 C19.7325041,60.2237015 21.3215881,61 23.0047471,61 L50.1797943,61 C53.3932648,59.7529467 55,55.087626 55,47.004038 C55,34.8786559 48.4486384,31.601287 48.4486384,21.5852923 C48.4486384,15.3472627 49.9512444,8.65735215 52.9564562,1.51556051 L52.9564791,1.51557015 C53.1903968,0.959672186 52.9293801,0.319400119 52.3734822,0.0854824655 C52.239403,0.0290629647 52.0954029,-2.67216882e-17 51.9499368,0 Z" id="路径-2" stroke="#666666" stroke-width="2.72999978"></path>
                    <polygon id="路径" fill="#666666" points="17 25.8082305 19.1068151 24.012581 24.9150105 30.6919398 30.9255619 24 33 25.8253864 27.6462384 31.7922041 32.7818856 31.7922041 32.7784166 34.5371461 26.2794681 34.5371461 26.2794681 37.2923816 32.7807293 37.2923816 32.7772603 40.0373236 26.2794681 40.0373236 26.2794681 45.9965688 23.4973622 46 23.4973622 40.0373236 17.0065079 40.0373236 17.0065079 37.2923816 23.4973622 37.2923816 23.4973622 34.5360024 17.0065079 34.5360024 17.0065079 31.7910603 22.2022838 31.7910603"></polygon>
                    <path d="M16.3917537,17 C7.29338164,22.1480883 2.75662307,28.3783591 2.78147797,35.6908126 C2.78147797,44.7838494 8.52098531,51.2202452 20,55 C15.0668223,50.2749905 10.2693054,45.6758467 8.67302063,36 C7.6088308,29.5494355 10.1817418,23.2161022 16.3917537,17 Z" id="路径-3" fill="#EBEBEB"></path>
                    <path d="M50.8073922,38.8559404 C52.5050604,43.7435574 52.9985599,48.0207022 52.2878907,51.687375 C51.5772216,55.3540477 50.5303827,57.5982581 49.1473739,58.4200062 L40.8667427,58.4200062 C44.0508326,57.060307 46.4033639,54.8160966 47.9243366,51.687375 C49.4453092,48.5586534 50.4063278,44.2815085 50.8073922,38.8559404 Z" id="路径-4" fill="#EBEBEB"></path>
                </g>
            </g>
        </g>
    </g>
</svg>