<?xml version="1.0" encoding="UTF-8"?>
<svg width="72px" height="72px" viewBox="0 0 72 72" version="1.1" xmlns="http://www.w3.org/2000/svg" xmlns:xlink="http://www.w3.org/1999/xlink">
    <!-- Generator: Sketch 60 (88103) - https://sketch.com -->
    <title>已经审核</title>
    <desc>Created with Sketch.</desc>
    <defs>
        <polygon id="path-1" points="7.10542566e-15 0 71.9999981 0 71.9999981 71.9999981 7.10542566e-15 71.9999981"></polygon>
    </defs>
    <g id="页面-1" stroke="none" stroke-width="1" fill="none" fill-rule="evenodd">
        <g id="0医保服务大厅" transform="translate(-438.000000, -1326.000000)">
            <g id="分组-6-copy备份-13" transform="translate(364.000000, 1280.000000)">
                <g id="分组-6-copy">
                    <g id="icon1-copy" transform="translate(74.000000, 48.000000)">
                        <g id="icon7">
                            <mask id="mask-2" fill="white">
                                <use xlink:href="#path-1"></use>
                            </mask>
                            <g id="矩形"></g>
                            <g id="分组" mask="url(#mask-2)">
                                <g transform="translate(2.700000, -15.200000)">
                                    <path d="M10.9680125,23.6057423 L41.3558172,36.2074401 C42.1512113,36.5372868 42.7825894,37.1701839 43.1105237,37.9663684 L55.5638897,68.2016195 L55.5638897,68.2016195" id="矩形-copy-2" stroke="#666666" stroke-width="2.24999994" fill="none" transform="translate(33.265951, 45.903681) scale(1, -1) rotate(-45.000000) translate(-33.265951, -45.903681) "></path>
                                    <path d="M10.9680125,35.2057419 L41.3558172,47.8074398 C42.1512113,48.1372864 42.7825894,48.7701836 43.1105237,49.566368 L55.5638897,79.8016192 L55.5638897,79.8016192" id="矩形-copy-3" stroke="#666666" stroke-width="2.10599989" fill="none" transform="translate(33.265951, 57.503681) scale(1, -1) rotate(-45.000000) translate(-33.265951, -57.503681) "></path>
                                    <path d="M10.9680125,45.9057416 L41.3558172,58.5074394 C42.1512113,58.8372861 42.7825894,59.4701833 43.1105237,60.2663677 L55.5638897,90.5016189 L55.5638897,90.5016189" id="矩形-copy-4" stroke="#666666" stroke-width="2.24999994" fill="none" transform="translate(33.265951, 68.203680) scale(1, -1) rotate(-45.000000) translate(-33.265951, -68.203680) "></path>
                                    <path d="M11.8969702,9.76591455 L41.9043012,22.8030096 C42.6571408,23.130091 43.257777,23.7307211 43.584866,24.4835574 L56.6221315,54.49045 C56.9786604,55.3110458 56.6024599,56.2652939 55.7818641,56.6218228 C55.3700939,56.800727 54.9025457,56.8007293 54.4907737,56.6218294 L24.4834427,43.5847344 C23.7306031,43.2576529 23.129967,42.6570229 22.8028779,41.9041865 L9.76561242,11.8972939 C9.40908349,11.0766981 9.78528402,10.12245 10.6058798,9.76592108 C11.01765,9.58701695 11.4851982,9.58701458 11.8969702,9.76591455 Z" id="矩形" stroke="#666666" stroke-width="2.24999994" fill="none" transform="translate(33.193872, 33.193872) rotate(-45.000000) translate(-33.193872, -33.193872) "></path>
                                    <path d="M17.6779382,15.54624 L39.6251923,25.0818352 C40.378028,25.4089256 40.978657,26.0095628 41.3057371,26.7624031 L50.8411889,48.7101499 C51.1977081,49.5307499 50.8214962,50.4849936 50.0008961,50.8415127 C49.5891238,51.0204119 49.1215756,51.0204087 48.7098057,50.8415039 L26.7625516,41.3059087 C26.0097159,40.9788183 25.4090869,40.3781811 25.0820068,39.6253409 L15.546555,17.677594 C15.1900359,16.856994 15.5662478,15.9027504 16.3868478,15.5462312 C16.7986201,15.367332 17.2661683,15.3673352 17.6779382,15.54624 Z" id="矩形" stroke="none" fill="#EBEBEB" fill-rule="evenodd" transform="translate(33.193872, 33.193872) rotate(-45.000000) translate(-33.193872, -33.193872) "></path>
                                </g>
                            </g>
                        </g>
                    </g>
                </g>
            </g>
        </g>
    </g>
</svg>