<?xml version="1.0" encoding="UTF-8"?>
<svg width="72px" height="72px" viewBox="0 0 72 72" version="1.1" xmlns="http://www.w3.org/2000/svg" xmlns:xlink="http://www.w3.org/1999/xlink">
    <!-- Generator: Sketch 60 (88103) - https://sketch.com -->
    <title>单位登记</title>
    <desc>Created with Sketch.</desc>
    <g id="页面-1" stroke="none" stroke-width="1" fill="none" fill-rule="evenodd">
        <g id="0医保服务大厅" transform="translate(-194.000000, -477.000000)">
            <g id="分组-6-copy" transform="translate(120.000000, 431.000000)">
                <g id="icon1-copy">
                    <g transform="translate(74.000000, 46.000000)">
                        <g id="分组-21">
                            <rect id="矩形" x="0" y="0" width="71.9999981" height="71.9999981"></rect>
                            <path d="M8.32499978,65.2749983 L42.8749989,65.2749983 L42.8749989,8.52768744 C42.8749989,8.3782029 42.8559004,8.22933086 42.8181672,8.08468704 C42.5735048,7.14681464 41.614871,6.58485688 40.6769986,6.82951924 L9.63699926,14.9269104 C8.86421915,15.1285052 8.32499978,15.8264362 8.32499978,16.6250786 L8.32499978,65.2749983 Z" id="矩形" stroke="#666666" stroke-width="2.24999994"></path>
                            <path d="M42.7249989,29.9916968 L42.7249989,65.2749983 L63.6749983,65.2749983 L63.6749983,43.7919177 C63.6749983,43.0645554 63.2941466,42.3902964 62.6712029,42.0148005 L42.7249989,29.9916968 Z" id="矩形-copy-4" stroke="#666666" stroke-width="2.24999994"></path>
                            <path d="M45.4460738,35.5999991 L45.4460738,62.4622904 L60.6772976,62.4622904 L60.6772976,45.8786247 C60.6772976,45.2503019 60.3496599,44.6674522 59.8128788,44.3408705 L45.4460738,35.5999991 L45.4460738,35.5999991 Z" id="路径" fill="#EBEBEB"></path>
                            <rect id="矩形" fill="#666666" x="15.9999996" y="24.7999993" width="19.1999995" height="2.5"></rect>
                            <rect id="矩形-copy-5" fill="#666666" x="15.9999996" y="37.599999" width="19.1999995" height="2.5"></rect>
                            <rect id="矩形-copy-13" fill="#666666" x="15.9999996" y="50.3999987" width="19.1999995" height="2.5"></rect>
                            <polygon id="矩形-copy-14" fill="#666666" points="47 50.3999987 58.9999997 50.3999987 58.9999997 52.8999987 47 52.8999987"></polygon>
                            <rect id="矩形" fill="#666666" x="2.39999994" y="63.9999983" width="67.1999982" height="2.5"></rect>
                        </g>
                    </g>
                </g>
            </g>
        </g>
    </g>
</svg>