<?xml version="1.0" encoding="UTF-8"?>
<svg width="72px" height="72px" viewBox="0 0 72 72" version="1.1" xmlns="http://www.w3.org/2000/svg" xmlns:xlink="http://www.w3.org/1999/xlink">
    <!-- Generator: Sketch 60 (88103) - https://sketch.com -->
    <title>单位缴费</title>
    <desc>Created with Sketch.</desc>
    <g id="页面-1" stroke="none" stroke-width="1" fill="none" fill-rule="evenodd">
        <g id="0医保服务大厅" transform="translate(-1170.000000, -1326.000000)">
            <g id="分组-6-copy备份-17" transform="translate(1096.000000, 1280.000000)">
                <g id="分组-6-copy">
                    <g id="icon1-copy" transform="translate(74.000000, 46.000000)">
                        <g id="分组-21">
                            <path d="M9.32499978,64.2749996 L43.0749998,64.2749996 L43.0749998,6.99999947 C43.0749998,6.87039824 43.060644,6.74119579 43.032195,6.61475557 C42.8194306,5.66913639 41.8803753,5.07504014 40.9347561,5.28780447 L10.6947558,12.0918049 C9.89394834,12.2719865 9.32499978,12.9831722 9.32499978,13.8039999 L9.32499978,64.2749996 Z" id="矩形" stroke="#666666" stroke-width="2.24999994" fill="#FFFFFF"></path>
                            <path d="M43.1001176,26.125 L43.1001176,62.875 L55.8501177,62.875 L55.8501177,27.8799998 C55.8501177,26.9107402 55.0643774,26.125 54.0951178,26.125 L43.1001176,26.125 Z" id="矩形备份-2" stroke="#666666" stroke-width="2.24999994"></path>
                            <rect id="矩形" fill="#666666" x="15.9999996" y="18.7999993" width="7" height="2.5"></rect>
                            <rect id="矩形备份" fill="#666666" x="30" y="18.7999993" width="7" height="2.5"></rect>
                            <rect id="矩形-copy-5" fill="#666666" x="15.9999996" y="30.5999993" width="7" height="2.5"></rect>
                            <rect id="矩形-copy-5备份" fill="#666666" x="30" y="30.5999993" width="7" height="2.5"></rect>
                            <rect id="矩形-copy-13" fill="#666666" x="15.9999996" y="42.3999993" width="7" height="2.5"></rect>
                            <rect id="矩形-copy-13备份-2" fill="#666666" x="30" y="42.3999993" width="7" height="2.5"></rect>
                            <rect id="矩形" fill="#666666" x="2.39999994" y="62.9999983" width="67.1999982" height="2.5"></rect>
                            <g id="编组" transform="translate(39.000000, 38.000000)">
                                <circle id="椭圆形" stroke="#666666" stroke-width="2.24999994" fill="#FFFFFF" cx="14" cy="14" r="14"></circle>
                                <circle id="椭圆形" fill="#EBEBEB" cx="14" cy="14" r="11"></circle>
                                <polygon id="路径" fill="#666666" points="9 8.15069215 10.4484353 7.00800608 14.4415697 11.2585072 18.5738238 7 20 8.16160956 16.3192889 11.9586753 19.8500463 11.9586753 19.8476614 13.7054566 15.3796343 13.7054566 15.3796343 15.4587883 19.8492514 15.4587883 19.8468664 17.2055696 15.3796343 17.2055696 15.3796343 20.9978165 13.4669365 21 13.4669365 17.2055696 9.00447419 17.2055696 9.00447419 15.4587883 13.4669365 15.4587883 13.4669365 13.7047288 9.00447419 13.7047288 9.00447419 11.9579475 12.5765701 11.9579475"></polygon>
                            </g>
                        </g>
                    </g>
                </g>
            </g>
        </g>
    </g>
</svg>