<?xml version="1.0" encoding="UTF-8"?>
<svg width="276px" height="600px" viewBox="0 0 276 600" version="1.1" xmlns="http://www.w3.org/2000/svg" xmlns:xlink="http://www.w3.org/1999/xlink">
    <!-- Generator: Sketch 64 (93537) - https://sketch.com -->
    <title>iphone手机</title>
    <desc>Created with Sketch.</desc>
    <g id="控件" stroke="none" stroke-width="1" fill="none" fill-rule="evenodd">
        <g id="iphone手机" fill="#2D3441">
            <g>
                <path d="M230,-9.67867119e-14 C255.405098,-9.52310983e-14 276,20.5949015 276,46 L276,554 C276,579.405098 255.405098,600 230,600 L46,600 C20.5949015,600 -5.68434189e-14,579.405098 -5.68434189e-14,554 L5.68434189e-14,46 C5.68434189e-14,20.5949015 20.5949015,-1.32142577e-13 46,-1.30586964e-13 L230,-9.67867119e-14 Z M44.8187484,10 C24.4683647,10 7.97111913,26.4972455 7.97111913,46.8476292 L7.97111913,46.8476292 L7.97111913,549.17708 C7.97111913,572.827525 27.1435937,592 50.7940396,592 L50.7940396,592 L224.988199,592 C248.638645,592 267.811119,572.827525 267.811119,549.17708 L267.811119,549.17708 L267.811119,46.8476292 C267.811119,26.4972455 251.313874,10 230.96349,10 L230.96349,10 Z" id="形状结合"></path>
                <path d="M58,8 C61.5172171,10.6703651 63.5172171,12.6703651 64,14 C66.2572574,23.6632325 75.2799194,31 86,31 L190,31 C200.970112,31 210.146818,23.3193922 212,13 C212.538954,11.9463397 214.538954,10.2796731 218,8 L58,8 Z" id="矩形" fill-rule="nonzero"></path>
                <rect id="矩形" fill-rule="nonzero" x="92" y="574" width="93" height="6" rx="3"></rect>
            </g>
        </g>
    </g>
</svg>