<?xml version="1.0" encoding="UTF-8"?>
<svg width="22px" height="22px" viewBox="0 0 22 22" version="1.1" xmlns="http://www.w3.org/2000/svg" xmlns:xlink="http://www.w3.org/1999/xlink">
    <!-- Generator: Sketch 64 (93537) - https://sketch.com -->
    <title>icon失败</title>
    <desc>Created with Sketch.</desc>
    <g id="页面-1" stroke="none" stroke-width="1" fill="none" fill-rule="evenodd">
        <g id="3-3版本管理-弹窗" transform="translate(-897.000000, -387.000000)" fill="#FF5351" fill-rule="nonzero">
            <g id="编组-3备份" transform="translate(675.000000, 366.000000)">
                <g id="icon失败" transform="translate(222.000000, 21.000000)">
                    <g id="形状">
                        <path d="M11,0 C4.928,0 0,4.928 0,11 C0,17.072 4.928,22 11,22 C17.072,22 22,17.072 22,11 C22,4.928 17.072,0 11,0 Z M16,14.6 L14.6,16 L11,12.4 L7.4,16 L6,14.6 L9.6,11 L6,7.4 L7.4,6 L11,9.6 L14.6,6 L16,7.4 L12.4,11 L16,14.6 L16,14.6 Z"></path>
                    </g>
                </g>
            </g>
        </g>
    </g>
</svg>