<?xml version="1.0" encoding="UTF-8"?>
<svg width="14px" height="14px" viewBox="0 0 14 14" version="1.1" xmlns="http://www.w3.org/2000/svg" xmlns:xlink="http://www.w3.org/1999/xlink">
    <!-- Generator: Sketch 64 (93537) - https://sketch.com -->
    <title>icon锁</title>
    <desc>Created with Sketch.</desc>
    <g id="页面-1" stroke="none" stroke-width="1" fill="none" fill-rule="evenodd">
        <g id="0登录" transform="translate(-651.000000, -431.000000)" fill="#C7C7D4" fill-rule="nonzero">
            <g id="填写" transform="translate(640.000000, 418.000000)">
                <g id="icon锁" transform="translate(11.875000, 13.875000)">
                    <g id="形状">
                        <path d="M10.1697186,4.32657878 L1.76789773,4.32657878 C1.21914181,4.32657878 0.770279652,4.77544093 0.770279652,5.32419685 L0.770279652,11.2069954 C0.770279652,11.7548813 1.21914181,12.2045555 1.76789773,12.2045555 L10.1697186,12.2045555 C10.7168069,12.2045555 11.1657126,11.7548813 11.1657126,11.2069954 L11.1657126,5.32419685 C11.1657126,4.77544093 10.7168069,4.32657878 10.1697186,4.32657878 Z M6.58727509,7.72425722 L6.58974018,9.73683594 C6.5905667,10.2467741 6.53610292,10.6469727 5.96838039,10.6469727 C5.40154238,10.6469727 5.35282079,10.2335497 5.35282079,9.72525006 L5.3380303,7.72427172 C5.3380303,7.72427172 4.94028232,7.3744333 4.94028232,6.77456321 C4.94028232,6.17466412 5.40154238,5.85284061 5.96838039,5.85284061 C6.53610292,5.85284061 6.99655096,6.18706203 6.99655096,6.77456321 C6.99655096,7.36283292 6.58727509,7.72425722 6.58727509,7.72425722 L6.58727509,7.72425722 Z M8.24101059,4.10493904 L8.24101059,2.93406931 C8.23938654,1.8588737 7.04237246,0.985075166 5.9688879,0.983451113 C4.89369229,0.985075166 3.69667821,1.8588882 3.69588068,2.93406931 L3.69588068,4.10493904 L2.72053533,4.10493904 L2.72053533,2.93406931 C2.72141986,1.32176166 4.35569573,0.00974431818 5.96800337,0.00891779119 C7.58038352,0.00974431818 9.21547141,1.32176166 9.21547141,2.93406931 L9.21547141,4.10493904 L8.24101059,4.10493904 Z"></path>
                    </g>
                </g>
            </g>
        </g>
    </g>
</svg>