<?xml version="1.0" encoding="UTF-8"?>
<svg width="16px" height="16px" viewBox="0 0 16 16" version="1.1" xmlns="http://www.w3.org/2000/svg" xmlns:xlink="http://www.w3.org/1999/xlink">
    <!-- Generator: Sketch 64 (93537) - https://sketch.com -->
    <title>icon二维码</title>
    <desc>Created with Sketch.</desc>
    <g id="页面-1" stroke="none" stroke-width="1" fill="none" fill-rule="evenodd">
        <g id="3-3版本管理-全部状态ui样式" transform="translate(-234.000000, -513.000000)" fill="#3085FF" fill-rule="nonzero">
            <g id="编组备份-6" transform="translate(50.000000, 490.000000)">
                <g id="icon二维码" transform="translate(184.000000, 23.000000)">
                    <path d="M-5.72443178e-05,7.52950451 L7.51348494,7.52950451 L7.51348494,0.0159805043 L-5.72443178e-05,0.0159805043 L-5.72443178e-05,7.52950451 Z M1.87834194,1.89436151 L5.63510394,1.89436151 L5.63510394,5.65112351 L1.87834194,5.65112351 L1.87834194,1.89436151 Z M8.45268453,0.0159805043 L8.45268453,7.52952269 L15.9662267,7.52952269 L15.9662267,0.0159805043 L8.45268453,0.0159805043 Z M14.0878275,5.65112351 L10.3310655,5.65112351 L10.3310655,1.89436151 L14.0878275,1.89436151 L14.0878275,5.65112351 Z M2.81752335,4.7119421 L4.69590435,4.7119421 L4.69590435,2.83354292 L2.81752335,2.83354292 L2.81752335,4.7119421 Z M-5.72443178e-05,15.9822463 L7.51348494,15.9822463 L7.51348494,8.4687041 L-5.72443178e-05,8.4687041 L-5.72443178e-05,15.9822463 Z M1.87834194,10.3470851 L5.63510394,10.3470851 L5.63510394,14.1038471 L1.87834194,14.1038471 L1.87834194,10.3470851 Z M13.1486461,2.83354292 L11.2702469,2.83354292 L11.2702469,4.71192392 L13.1486461,4.71192392 L13.1486461,2.83354292 L13.1486461,2.83354292 Z M8.45268453,15.9822463 L10.3310655,15.9822463 L10.3310655,14.1038653 L8.45268453,14.1038653 L8.45268453,15.9822463 Z M10.3310655,10.3470851 L10.3310655,14.1038471 L12.2094465,14.1038471 L12.2094465,10.3470851 L10.3310655,10.3470851 Z M14.0878275,14.1038653 L12.2094465,14.1038653 L12.2094465,15.9822463 L15.9662085,15.9822463 L15.9662085,12.2254661 L14.0878275,12.2254661 L14.0878275,14.1038653 Z M14.0878275,10.3470851 L15.9662085,10.3470851 L15.9662085,8.4687041 L14.0878275,8.4687041 L14.0878275,10.3470851 Z M8.45268453,8.4687041 L8.45268453,10.3470851 L10.3310655,10.3470851 L10.3310655,8.4687041 L8.45268453,8.4687041 Z M2.81752335,13.1646657 L4.69590435,13.1646657 L4.69590435,11.2862847 L2.81752335,11.2862847 L2.81752335,13.1646657 Z" id="形状"></path>
                </g>
            </g>
        </g>
    </g>
</svg>