<?xml version="1.0" encoding="UTF-8"?>
<svg width="14px" height="14px" viewBox="0 0 14 14" version="1.1" xmlns="http://www.w3.org/2000/svg" xmlns:xlink="http://www.w3.org/1999/xlink">
    <!-- Generator: Sketch 64 (93537) - https://sketch.com -->
    <title>icon运营管理</title>
    <desc>Created with Sketch.</desc>
    <g id="页面-1" stroke="none" stroke-width="1" fill="none" fill-rule="evenodd">
        <g id="开发配置-应用配置" transform="translate(-20.000000, -143.000000)">
            <rect fill="#F2F7FE" x="0" y="0" width="1280" height="956"></rect>
            <rect id="矩形" fill="#2D3441" x="0" y="0" width="200" height="1216"></rect>
            <g id="一级导航" transform="translate(0.000000, 130.000000)">
                <g>
                    <rect id="矩形" fill="#2D3441" x="0" y="0" width="200" height="40"></rect>
                    <g id="icon_下拉" transform="translate(172.000000, 14.000000)" stroke="#9EA2A9" stroke-linecap="round" stroke-linejoin="round">
                        <g id="路径">
                            <polyline points="1.54839996 3.95576997 5.93586517 8.34323519 10.3233304 3.95576997"></polyline>
                        </g>
                    </g>
                    <text font-family="PingFangSC-Regular, PingFang SC" font-size="14" font-weight="normal" fill="#F2F7FE">
                        <tspan x="48" y="25">运营管理</tspan>
                    </text>
                    <g id="icon运营管理" transform="translate(20.000000, 13.000000)" fill="#9EA2A9">
                        <g id="编组">
                            <path d="M7,0 C3.13400675,0 0,3.13400675 0,7 C0,10.8659932 3.13400675,14 7,14 C10.8659932,14 14,10.8659932 14,7 C14,3.13400675 10.8659932,0 7,0 Z M5.229875,9.338 L4.946375,10.458875 C3.880625,9.821 3.170125,8.682625 3.170125,7.385 C3.170125,7.09625 3.205125,6.817125 3.271625,6.547625 C3.01931085,6.29779245 2.87697572,5.95769965 2.876125,5.602625 C2.876125,4.84925 3.511375,4.2385 4.293625,4.2385 C5.077625,4.2385 5.712,4.84925 5.712,5.602625 C5.712,6.349 5.09075,6.9545 4.318125,6.967625 C4.29344007,7.10566854 4.28114116,7.24564194 4.281375,7.385875 C4.281375,8.17075 4.64975,8.871625 5.229875,9.338 L5.229875,9.338 Z M8.206625,10.787 C7.993125,11.277 7.487375,11.620875 6.90025,11.620875 C6.11625,11.620875 5.481875,11.00925 5.481875,10.255875 C5.481875,9.5025 6.11625,8.890875 6.90025,8.890875 C7.4515,8.890875 7.92925,9.193625 8.162875,9.636375 C8.96875,9.225125 9.527875,8.42625 9.569875,7.499625 L10.675875,7.147875 C10.681125,7.226625 10.684625,7.30625 10.684625,7.385875 C10.684625,8.950375 9.652125,10.283 8.206625,10.787 Z M9.592625,7.051625 C8.8095,7.051625 8.175125,6.440875 8.175125,5.6875 C8.175125,5.513375 8.208375,5.347125 8.2705,5.194 C7.86093507,4.96210034 7.39803303,4.84087127 6.927375,4.84225 C6.622875,4.84225 6.32975,4.89125 6.057625,4.983125 L5.410125,4.0775 C5.89008035,3.87415074 6.40611921,3.76969304 6.927375,3.77035466 C7.69091328,3.76789095 8.43786924,3.99301349 9.072875,4.417 C9.233875,4.356625 9.408875,4.3225 9.592625,4.3225 C10.374875,4.3225 11.010125,4.934125 11.010125,5.6875 C11.010125,6.440875 10.374,7.051625 9.592625,7.051625 Z" id="形状" fill-rule="nonzero"></path>
                        </g>
                    </g>
                </g>
            </g>
            <g id="一级导航备份" transform="translate(0.000000, 130.000000)">
                <g id="一级导航">
                    <rect id="矩形" fill="#2D3441" x="0" y="0" width="200" height="40"></rect>
                    <g id="icon运营管理" transform="translate(20.000000, 13.000000)" fill="#9EA2A9">
                        <g id="编组">
                            <path d="M7,0 C3.13400675,0 0,3.13400675 0,7 C0,10.8659932 3.13400675,14 7,14 C10.8659932,14 14,10.8659932 14,7 C14,3.13400675 10.8659932,0 7,0 Z M5.229875,9.338 L4.946375,10.458875 C3.880625,9.821 3.170125,8.682625 3.170125,7.385 C3.170125,7.09625 3.205125,6.817125 3.271625,6.547625 C3.01931085,6.29779245 2.87697572,5.95769965 2.876125,5.602625 C2.876125,4.84925 3.511375,4.2385 4.293625,4.2385 C5.077625,4.2385 5.712,4.84925 5.712,5.602625 C5.712,6.349 5.09075,6.9545 4.318125,6.967625 C4.29344007,7.10566854 4.28114116,7.24564194 4.281375,7.385875 C4.281375,8.17075 4.64975,8.871625 5.229875,9.338 L5.229875,9.338 Z M8.206625,10.787 C7.993125,11.277 7.487375,11.620875 6.90025,11.620875 C6.11625,11.620875 5.481875,11.00925 5.481875,10.255875 C5.481875,9.5025 6.11625,8.890875 6.90025,8.890875 C7.4515,8.890875 7.92925,9.193625 8.162875,9.636375 C8.96875,9.225125 9.527875,8.42625 9.569875,7.499625 L10.675875,7.147875 C10.681125,7.226625 10.684625,7.30625 10.684625,7.385875 C10.684625,8.950375 9.652125,10.283 8.206625,10.787 Z M9.592625,7.051625 C8.8095,7.051625 8.175125,6.440875 8.175125,5.6875 C8.175125,5.513375 8.208375,5.347125 8.2705,5.194 C7.86093507,4.96210034 7.39803303,4.84087127 6.927375,4.84225 C6.622875,4.84225 6.32975,4.89125 6.057625,4.983125 L5.410125,4.0775 C5.89008035,3.87415074 6.40611921,3.76969304 6.927375,3.77035466 C7.69091328,3.76789095 8.43786924,3.99301349 9.072875,4.417 C9.233875,4.356625 9.408875,4.3225 9.592625,4.3225 C10.374875,4.3225 11.010125,4.934125 11.010125,5.6875 C11.010125,6.440875 10.374,7.051625 9.592625,7.051625 Z" id="形状" fill-rule="nonzero"></path>
                        </g>
                    </g>
                    <g id="icon" transform="translate(20.000000, 13.000000)" fill="#9EA2A9" fill-rule="nonzero">
                        <g id="编组">
                            <path d="M7,0 C3.13400675,0 0,3.13400675 0,7 C0,10.8659932 3.13400675,14 7,14 C10.8659932,14 14,10.8659932 14,7 C14,3.13400675 10.8659932,0 7,0 Z M5.229875,9.338 L4.946375,10.458875 C3.880625,9.821 3.170125,8.682625 3.170125,7.385 C3.170125,7.09625 3.205125,6.817125 3.271625,6.547625 C3.01931085,6.29779245 2.87697572,5.95769965 2.876125,5.602625 C2.876125,4.84925 3.511375,4.2385 4.293625,4.2385 C5.077625,4.2385 5.712,4.84925 5.712,5.602625 C5.712,6.349 5.09075,6.9545 4.318125,6.967625 C4.29344007,7.10566854 4.28114116,7.24564194 4.281375,7.385875 C4.281375,8.17075 4.64975,8.871625 5.229875,9.338 L5.229875,9.338 Z M8.206625,10.787 C7.993125,11.277 7.487375,11.620875 6.90025,11.620875 C6.11625,11.620875 5.481875,11.00925 5.481875,10.255875 C5.481875,9.5025 6.11625,8.890875 6.90025,8.890875 C7.4515,8.890875 7.92925,9.193625 8.162875,9.636375 C8.96875,9.225125 9.527875,8.42625 9.569875,7.499625 L10.675875,7.147875 C10.681125,7.226625 10.684625,7.30625 10.684625,7.385875 C10.684625,8.950375 9.652125,10.283 8.206625,10.787 Z M9.592625,7.051625 C8.8095,7.051625 8.175125,6.440875 8.175125,5.6875 C8.175125,5.513375 8.208375,5.347125 8.2705,5.194 C7.86093507,4.96210034 7.39803303,4.84087127 6.927375,4.84225 C6.622875,4.84225 6.32975,4.89125 6.057625,4.983125 L5.410125,4.0775 C5.89008035,3.87415074 6.40611921,3.76969304 6.927375,3.77035466 C7.69091328,3.76789095 8.43786924,3.99301349 9.072875,4.417 C9.233875,4.356625 9.408875,4.3225 9.592625,4.3225 C10.374875,4.3225 11.010125,4.934125 11.010125,5.6875 C11.010125,6.440875 10.374,7.051625 9.592625,7.051625 Z" id="形状"></path>
                        </g>
                    </g>
                </g>
            </g>
        </g>
    </g>
</svg>