<?xml version="1.0" encoding="UTF-8"?>
<svg width="14px" height="14px" viewBox="0 0 14 14" version="1.1" xmlns="http://www.w3.org/2000/svg" xmlns:xlink="http://www.w3.org/1999/xlink">
    <!-- Generator: Sketch 64 (93537) - https://sketch.com -->
    <title>icon系统</title>
    <desc>Created with Sketch.</desc>
    <g id="页面-1" stroke="none" stroke-width="1" fill="none" fill-rule="evenodd">
        <g id="开发配置-应用配置" transform="translate(-20.000000, -423.000000)" fill="#9EA2A9" fill-rule="nonzero">
            <g id="一级导航备份-5" transform="translate(0.000000, 410.000000)">
                <g id="一级导航">
                    <g id="icon" transform="translate(20.000000, 13.000000)">
                        <g id="编组">
                            <path d="M13.9119171,8.85595855 C13.9326425,8.9761658 13.9274611,9.12020726 13.8963731,9.28911918 C13.834315,9.6433879 13.6968412,9.98018108 13.4932643,10.2766839 C13.4097234,10.4020953 13.296535,10.5049615 13.1637306,10.5761658 C13.0670728,10.630093 12.9592578,10.6609479 12.8487047,10.6663212 C12.7468116,10.6638741 12.6461425,10.6435298 12.5512953,10.6062176 C12.4283551,10.5711769 12.303436,10.543494 12.1772021,10.5233161 C12.0260979,10.4991636 11.8725391,10.4942887 11.7202072,10.5088083 C11.5627664,10.5246357 11.4074754,10.557292 11.2569948,10.6062176 C11.1051943,10.6543185 10.9689264,10.7419449 10.8621762,10.8601036 C10.6314068,11.0899857 10.4834342,11.38994 10.4414508,11.7129534 C10.4020725,12.0321243 10.4466321,12.3357513 10.5761658,12.6248705 C10.6762513,12.816789 10.6589881,13.048838 10.5316062,13.2238342 C10.4725389,13.3036269 10.3761658,13.3865285 10.2476684,13.4704663 C10.1114354,13.5588384 9.96871408,13.6367809 9.82072539,13.7036269 C9.66735751,13.773057 9.50466322,13.8279793 9.33367875,13.8683938 C9.18674622,13.9045685 9.03626281,13.9243781 8.88497409,13.9275109 C8.79032582,13.9251158 8.699892,13.887835 8.63108808,13.8227979 C8.55898119,13.7618521 8.5021898,13.6848288 8.46528497,13.5979275 L8.4507772,13.5979275 C8.3393484,13.2859128 8.14607258,13.0096 7.89119171,12.7979275 C7.63585002,12.5764083 7.30795545,12.4565369 6.96994818,12.4611399 C6.63108808,12.4611399 6.32435233,12.573057 6.0507772,12.7979275 C5.77616581,13.0227979 5.58445596,13.2839378 5.47357512,13.5834197 C5.43166796,13.6941501 5.35253019,13.7868439 5.24974093,13.8455959 C5.14909867,13.9006663 5.03595909,13.928862 4.92124353,13.9275109 C4.76129898,13.924562 4.60256483,13.8990948 4.44974094,13.8518135 C4.27159555,13.8005726 4.09681788,13.7382756 3.92642487,13.665285 C3.76011914,13.5950246 3.60200892,13.5067609 3.45492228,13.4020725 C3.33441999,13.3207075 3.22830589,13.2198465 3.14093264,13.1036269 C3.09014478,13.0311049 3.06135977,12.9454695 3.05803108,12.8569948 C3.05284974,12.7626943 3.0911917,12.6300518 3.17098446,12.4611399 C3.27979275,12.2310881 3.32227979,11.9689119 3.29740932,11.6746114 C3.26700697,11.3672322 3.13245367,11.0794783 2.91606218,10.8590674 C2.78077367,10.7123036 2.60341775,10.6109573 2.40829016,10.5689119 C2.22209483,10.5245003 2.03060071,10.5063624 1.83937823,10.5150259 C1.63005181,10.5253886 1.41554403,10.5658031 1.19689119,10.6352332 C1.0576962,10.6745898 0.909079094,10.6635811 0.777202075,10.6041451 C0.667357513,10.5658031 0.564766837,10.4735751 0.469430048,10.3295337 C0.371442419,10.1773989 0.286510465,10.0172415 0.215544037,9.8507772 C0.141272814,9.67700844 0.0836739348,9.49657821 0.0435233161,9.31191709 C0.00531623805,9.16311868 -0.00522145634,9.00856585 0.0124352291,8.85595855 C0.0435233161,8.63626942 0.141968906,8.49637306 0.31295337,8.43626943 C0.611398968,8.31606218 0.87979275,8.12020726 1.12020726,7.84559586 C1.35854923,7.57098447 1.47875649,7.26528498 1.47875647,6.92435234 C1.47875647,6.57616581 1.35958548,6.2715026 1.12020726,6.01243523 C0.896866447,5.764564 0.620613447,5.57012439 0.311917098,5.44352332 C0.224870466,5.41554405 0.150259063,5.34300519 0.0901554465,5.22901554 C0.0318995954,5.12065041 0.000953518135,4.99971173 -1.7408297e-13,4.87668394 C-1.7408297e-13,4.74818654 0.0207253866,4.60310882 0.060103631,4.44352332 C0.0994818754,4.28393783 0.152331606,4.12953368 0.216580309,3.97927462 C0.281865283,3.83005183 0.357512957,3.69326425 0.441450775,3.56787565 C0.512977531,3.45704063 0.607299696,3.36271846 0.718134715,3.29119171 C0.785991053,3.24438946 0.868215728,3.22309915 0.950259067,3.23108809 C1.02487047,3.24145079 1.10777202,3.26217618 1.19689119,3.29119171 C1.49637306,3.41139895 1.80829016,3.44766838 2.13264249,3.40310881 C2.45595854,3.35854922 2.74404145,3.21658032 2.99274611,2.97823835 C3.1119171,2.8580311 3.19896373,2.70984457 3.253886,2.53678756 C3.30880828,2.36062175 3.34404145,2.18860103 3.35751295,2.01865285 C3.37327002,1.86499704 3.37327002,1.71013251 3.35751295,1.55647669 C3.3482809,1.45632402 3.33618615,1.3564559 3.32124352,1.25699482 C3.2991377,1.1885057 3.28182472,1.11856128 3.26943005,1.0476684 C3.253206,0.977164095 3.2604844,0.903288328 3.29015543,0.837305706 C3.35954664,0.686510371 3.47158516,0.559341247 3.61243523,0.471502591 C3.76787565,0.367875644 3.93367876,0.27979274 4.11398964,0.209326423 C4.28398987,0.143069832 4.45897718,0.090400385 4.6373057,0.0518134735 C4.8072539,0.0176165864 4.94196892,6.21724894e-15 5.04145078,6.21724894e-15 C5.16994818,6.21724894e-15 5.27253886,0.0414507732 5.34818653,0.126424877 C5.41744212,0.202800908 5.47065316,0.292308219 5.50466321,0.389637302 C5.61450777,0.659067355 5.79481865,0.894300508 6.04352332,1.09948187 C6.29222799,1.30466322 6.58756477,1.4072539 6.92642487,1.40725389 C7.27564767,1.40725389 7.58445595,1.30984455 7.85388601,1.1150259 C8.12331606,0.920207252 8.31295337,0.673575128 8.42279793,0.374093272 C8.47135473,0.282417358 8.5343345,0.199144112 8.60932642,0.127461148 C8.69326424,0.0424870588 8.78031087,6.21724894e-15 8.87150259,6.21724894e-15 C9.0103627,6.21724894e-15 9.1626943,0.0207253866 9.32746114,0.060103631 C9.49326424,0.0994818754 9.65492228,0.155440421 9.8134715,0.225906738 C9.97409326,0.294300526 10.1222798,0.384455959 10.2549223,0.495336792 C10.3896373,0.604145082 10.4963731,0.723316072 10.5772021,0.853886006 C10.626943,0.933678752 10.642487,1.01968911 10.6217617,1.1150259 C10.6099398,1.18443791 10.5901187,1.25224719 10.5626943,1.31709845 C10.4321244,1.60725389 10.3927461,1.90984456 10.442487,2.22901555 C10.492228,2.54818653 10.638342,2.82797927 10.8756477,3.06735751 C11.1106103,3.30447338 11.42524,3.44590901 11.7585492,3.46424871 C12.107772,3.48808291 12.4321244,3.4310881 12.7316062,3.29222798 C12.8191689,3.24006783 12.9217389,3.2188968 13.0227979,3.23212436 C13.1378238,3.24248706 13.2331606,3.28808291 13.3139896,3.36683938 C13.4632124,3.50569949 13.5948187,3.71917098 13.7098446,4.00310881 C13.8248705,4.28704663 13.9025907,4.57305699 13.9419689,4.86321244 C13.9626943,5.03212436 13.934715,5.16373058 13.8611399,5.25906736 C13.8015609,5.34103492 13.7210259,5.40546293 13.6279793,5.44559585 C13.3147971,5.55872348 13.0402237,5.75854392 12.8362694,6.02176166 C12.6204949,6.28520869 12.5038903,6.6159552 12.5067358,6.95647668 C12.5067358,7.29637305 12.6,7.59274611 12.7823834,7.84766839 C12.9678756,8.10051813 13.2093264,8.28290155 13.507772,8.39274611 C13.5772021,8.43212436 13.6373057,8.47253886 13.6870466,8.5119171 C13.7962254,8.60018029 13.8748911,8.72053526 13.9119171,8.85595855 L13.9119171,8.85595855 Z M6.95647668,10.2031385 C7.39295665,10.2049865 7.82524096,10.117895 8.22694301,9.94715026 C8.62590674,9.77720207 8.97305699,9.54300519 9.26735751,9.24352332 C9.56165802,8.94300518 9.79378237,8.59792747 9.96269431,8.20414508 C10.1326425,7.81036269 10.2165803,7.38756477 10.2165803,6.93989637 C10.2165803,6.49119171 10.1326425,6.06943005 9.96269431,5.67668395 C9.79943469,5.290828 9.56335187,4.94004624 9.26735751,4.64352332 C8.96882453,4.34659172 8.61548245,4.11044378 8.22694301,3.94818653 C7.82514059,3.77788072 7.39287646,3.69114582 6.95647668,3.69322636 C6.50777202,3.69322636 6.08601036,3.77927461 5.69222798,3.94818653 C4.91398748,4.27933989 4.29441745,4.89928138 3.96373058,5.6777202 C3.79378238,6.07150259 3.70880829,6.49326425 3.70880829,6.94196891 C3.70880829,7.3896373 3.79378238,7.81139896 3.96373058,8.20518135 C4.1326425,8.59896374 4.36580312,8.94507772 4.65906736,9.24455959 C4.95336787,9.54404146 5.2984456,9.77720208 5.6911917,9.94818653 C6.08497409,10.1170985 6.50673575,10.2020725 6.95544041,10.2020725 L6.95647668,10.2031385 Z" id="形状"></path>
                        </g>
                    </g>
                </g>
            </g>
        </g>
    </g>
</svg>