<?xml version="1.0" encoding="UTF-8"?>
<svg width="64px" height="48px" viewBox="0 0 64 48" version="1.1" xmlns="http://www.w3.org/2000/svg" xmlns:xlink="http://www.w3.org/1999/xlink">
    <!-- Generator: Sketch 64 (93537) - https://sketch.com -->
    <title>icon无记录</title>
    <desc>Created with Sketch.</desc>
    <g id="页面-1" stroke="none" stroke-width="1" fill="none" fill-rule="evenodd">
        <g id="3-3版本管理" transform="translate(-708.000000, -190.000000)">
            <g id="暂无数据" transform="translate(708.000000, 190.000000)">
                <g id="icon无记录">
                    <path d="M0,41.2186598 C0,44.9465819 14.326888,47.9686598 32,47.9686598 C49.673112,47.9686598 64,44.9465819 64,41.2186598 C64,37.4907377 49.673112,34.4686598 32,34.4686598 C14.326888,34.4686598 0,37.4907377 0,41.2186598 L0,41.2186598 Z" id="路径" fill="#F1F1F4" fill-rule="nonzero"></path>
                    <path d="M46.5037013,13 L17.6206476,13.1098999 L9.42105263,24.2689672 L9.70621752,40.1872996 L54.9721537,40.0426996 L54.9564644,24.2342341 L46.5037013,13 Z" id="路径" stroke="#C7C7D4" stroke-width="2"></path>
                    <path d="M17.8635383,2.91756117 L46.3564307,2.91756117 C47.0541776,2.91756117 47.6198132,3.36527642 47.6198132,3.91756117 L47.6198132,30.9175612 C47.6198132,31.4698459 47.0541776,31.9175612 46.3564307,31.9175612 L17.8635383,31.9175612 C17.1657914,31.9175612 16.6001558,31.4698459 16.6001558,30.9175612 L16.6001558,3.91756117 C16.6001558,3.36527642 17.1657914,2.91756117 17.8635383,2.91756117 Z" id="路径" fill-opacity="0.58" fill="#FFFFFF"></path>
                    <path d="M17.3497261,2.02426044 L46.9085186,2.02426044 C47.6182956,2.02426044 48.1936835,2.48741414 48.1936835,3.05874319 L48.1936835,30.9897777 C48.1936835,31.5611067 47.6182956,32.0242604 46.9085186,32.0242604 L17.3497261,32.0242604 C16.6399491,32.0242604 16.0645612,31.5611067 16.0645612,30.9897777 L16.0645612,3.05874319 C16.0645612,2.48741414 16.6399491,2.02426044 17.3497261,2.02426044 Z" id="路径" stroke="#C7C7D4" stroke-width="2" stroke-dasharray="1.6"></path>
                    <path d="M9.06363508,24 L23.2692052,24 C23.9789822,24 24.5543701,24.5124549 24.5543701,25.1446 L24.5543701,26.5879406 C24.5543701,26.8915074 24.689771,27.1826408 24.9307862,27.397295 C25.1718014,27.6119491 25.4986881,27.7325405 25.839535,27.7325405 L38.5536713,27.7325405 C39.2634483,27.7325405 39.8388362,27.2200857 39.8388362,26.5879406 L39.8388362,25.1446 C39.8388362,24.5124549 40.4142241,24 41.1240011,24 L55.3295712,24 C55.6844597,24 55.9721537,24.2562274 55.9721537,24.5723 L55.9721537,40.5966998 C55.9721537,40.9127723 55.6844597,41.1689997 55.3295712,41.1689997 L9.06363508,41.1689997 C8.89321162,41.1689997 8.72976826,41.108704 8.60926067,41.001377 C8.48875309,40.8940499 8.42105263,40.7484831 8.42105263,40.5966998 L8.42105263,24.5723 C8.42105263,24.4205166 8.48875309,24.2749499 8.60926067,24.1676228 C8.72976826,24.0602957 8.89321162,24 9.06363508,24 Z" id="路径" fill="#FFFFFF"></path>
                    <path d="M23.2832331,25.0002018 L9.45899917,25.5330364 L10.0252097,40.1571938 L54.9331748,39.6093012 L54.3675395,25 L40.8388362,25.1446 L40.8388362,26.5879406 C40.8388362,27.1920726 40.574661,27.7458144 40.1275079,28.1440602 C39.724728,28.502786 39.1703551,28.7325405 38.5536713,28.7325405 L25.839535,28.7325405 C25.247251,28.7325405 24.6831058,28.5158137 24.2656984,28.1440602 C23.8023063,27.7313516 23.5543701,27.1681695 23.5543701,26.5879406 L23.2832331,25.0002018 Z" id="路径" stroke="#C7C7D4" stroke-width="2"></path>
                </g>
            </g>
        </g>
    </g>
</svg>