<?xml version="1.0" encoding="UTF-8"?>
<svg width="18px" height="18px" viewBox="0 0 18 18" version="1.1" xmlns="http://www.w3.org/2000/svg" xmlns:xlink="http://www.w3.org/1999/xlink">
    <!-- Generator: Sketch 64 (93537) - https://sketch.com -->
    <title>说明</title>
    <desc>Created with Sketch.</desc>
    <g id="医保公共服务管理平台" stroke="none" stroke-width="1" fill="none" fill-rule="evenodd">
        <g id="业务管理-服务配置2" transform="translate(-611.000000, -1009.000000)" fill="#9EA2A9" fill-rule="nonzero">
            <g id="请填写备份-4" transform="translate(260.000000, 998.000000)">
                <g id="说明" transform="translate(351.000000, 11.000000)">
                    <g id="形状">
                        <path d="M10.1243174,5.15859184 C10.1243174,4.58464041 9.65957941,4.11990241 9.08562798,4.11990241 C8.51167654,4.11990241 8.04693854,4.58464041 8.04693854,5.15859184 C8.04693854,5.73254328 8.51167654,6.19728128 9.08562798,6.19728128 C9.65957941,6.19728128 10.1243174,5.73254328 10.1243174,5.15859184 Z M7.91216452,13.7515975 C8.10038341,13.9142558 8.34204717,13.9398164 8.5209713,13.9189032 C8.63018473,13.9049611 8.74869292,13.8724294 8.79284303,13.860811 L10.5449053,13.26827 C10.9213431,13.1427908 11.1049146,12.8941559 10.9701406,12.4573022 C10.8353666,12.0808644 10.5216684,11.9786221 10.217265,12.0529801 L9.24828628,12.3225282 L10.149878,8.05855699 C10.1893807,7.86801441 10.1591728,7.57058208 9.95933542,7.3568026 C9.7780876,7.16393633 9.47833159,7.13372836 9.28778901,7.18252585 L7.62170326,7.74718253 C7.31962356,7.8238643 7.15696526,8.21656791 7.23829441,8.51864761 C7.34750784,8.92064599 7.661206,9.06239108 7.9632857,8.98570931 L8.69292436,8.76495875 L7.76344836,13.2032067 C7.72162194,13.3914256 7.77274312,13.6191472 7.91216452,13.7515975 L7.91216452,13.7515975 Z M17.9797839,8.99677007 C17.9797839,13.9579412 13.9584989,17.9792262 8.99732776,17.9792262 C4.03615662,17.9792262 0.0148716161,13.9579412 0.0148716161,8.99677007 C0.0148716161,4.03559893 4.03615662,0.0143139305 8.99732776,0.0143139305 C13.9584989,0.0143139305 17.9797839,4.03559893 17.9797839,8.99677007 Z M9.00922505,1.37060532 C4.92845358,1.37060532 1.34736842,4.95169048 1.34736842,9.02056466 C1.34736842,13.2560009 4.77378878,16.6824213 9.00922505,16.6824213 C13.2446613,16.6824213 16.6711116,13.2560009 16.6711116,9.02056466 C16.682979,4.97548507 13.149483,1.37060532 9.00922505,1.37060532 Z"></path>
                    </g>
                </g>
            </g>
        </g>
    </g>
</svg>