<?xml version="1.0" encoding="UTF-8"?>
<svg width="30px" height="30px" viewBox="0 0 30 30" version="1.1" xmlns="http://www.w3.org/2000/svg" xmlns:xlink="http://www.w3.org/1999/xlink">
    <!-- Generator: Sketch 64 (93537) - https://sketch.com -->
    <title>logo</title>
    <desc>Created with Sketch.</desc>
    <g id="控件" stroke="none" stroke-width="1" fill="none" fill-rule="evenodd">
        <g id="top" transform="translate(-20.000000, -20.000000)" fill-rule="nonzero">
            <g id="logo" transform="translate(20.000000, 20.000000)">
                <path d="M27.1365591,3.82224461 C30.869086,7.55772848 30.869086,13.6109543 27.1365591,17.3464382 L16.6860215,27.8079973 C16.2322491,28.262132 15.6165841,28.5172928 14.9745968,28.5172928 C14.3326094,28.5172928 13.7169445,28.262132 13.263172,27.8079973 L2.03225806,16.5639113 C1.71779207,16.2490537 1.71779207,15.7389839 2.03225806,15.4241264 L13.6236559,3.82197581 C17.3521505,0.0907930003 23.4,0.0881048387 27.1317204,3.81659945 C27.1333333,3.81875 27.135215,3.8203629 27.1370968,3.82197581 L27.1365591,3.82224461 Z" id="路径" fill="#7AB1FF"></path>
                <path d="M2.80322581,3.82224461 C6.53172042,0.0905241935 12.5795699,0.0883736454 16.3112903,3.81686829 L16.3166667,3.82224461 L27.9080645,15.4238575 C28.2227096,15.7387459 28.2227096,16.2490229 27.9080645,16.5639113 L16.6768817,27.8079973 C16.2230984,28.2622143 15.6073758,28.5174273 14.9653226,28.5174273 C14.3232693,28.5174273 13.7075468,28.2622143 13.2537635,27.8079973 L2.80322581,17.3464382 C-0.929301065,13.6109543 -0.929301065,7.55772848 2.80322581,3.82224461 Z" id="路径" fill="#3085FF"></path>
                <path d="M16.3043478,10 L16.304,13.695 L20,13.6956522 L20,15.8695652 L16.304,15.869 L16.3043478,20 L14.1304348,20 L14.13,15.869 L10,15.8695652 L10,13.6956522 L14.13,13.695 L14.1304348,10 L16.3043478,10 Z" id="形状结合" fill="#FFFFFF"></path>
            </g>
        </g>
    </g>
</svg>